<?xml version="1.0" encoding="utf-8"?>
<!-- Generator: Adobe Illustrator 27.3.1, SVG Export Plug-In . SVG Version: 6.00 Build 0)  -->
<svg version="1.1" id="Layer_2" xmlns="http://www.w3.org/2000/svg" xmlns:xlink="http://www.w3.org/1999/xlink" x="0px" y="0px"
	 viewBox="0 0 1122 1122" style="enable-background:new 0 0 1122 1122;" xml:space="preserve">
<style type="text/css">
	.st0{display:none;}
	.st1{opacity:0.92;fill:#394959;}
	.st2{fill:#8C776B;}
	.st3{fill:#F0CFC2;}
	.st4{fill:#9AAAB5;}
	.st5{fill:#262626;}
	.st6{fill:#383838;}
	.st7{fill:#EBEFEB;}
	.st8{fill:#91A1AB;}
	.st9{fill:#F7F7F7;}
	.st10{fill:#5E5E5E;}
	.st11{fill:#303030;}
	.st12{fill:#BFBFBF;}
	.st13{fill:#F0DDD1;}
	.st14{fill:#999999;}
	.st15{fill:#AFD9C4;}
	.st16{fill:#C4A451;}
	.st17{fill:#4D4D4D;}
	.st18{fill:#454545;}
	.st19{fill:#F2F2F2;}
	.st20{fill:#AA6A64;}
	.st21{fill:#0F0F0F;}
	.st22{opacity:0.81;}
	.st23{fill:#B3D6E3;}
	.st24{fill:#FCD79F;}
</style>
<g id="Layer_3" class="st0">
</g>
<path class="st1" d="M913.85,523.3c45.15-0.81,93.79-0.66,130.59,24.07c16.44,11.05,30.04,28.29,29.38,47.34
	c-1.89,53.86-104.24,67.47-101.06,121.27c1.71,28.98,34.06,45.61,57.5,64.36c36.63,29.29,57.14,75.68,53.47,120.88
	c-1.9,23.39-10.67,47.31-29.36,62.74c-14.78,12.19-34.19,17.95-53.22,22.45c-78.52,18.55-160.17,20.84-241.07,23.04
	c-101,2.74-202,5.48-302.99,8.22c-77.79,2.11-159.59,3.39-228.38-30.99c-68.8-34.38-116.93-117.5-82.31-183.36
	c9.84-18.72,26-38.67,17.98-58.16c-3.69-8.97-11.89-15.43-19.02-22.29c-41.34-39.81-53.57-121.55-12.35-166.19
	c40.7-44.07,164.54-22.31,223.9-23.38C542.55,529.97,728.2,526.63,913.85,523.3z"/>
<path class="st2" d="M835.56,247.54c2.64,5.04,5.62,9.95,7.33,15.47c1.34,4.33,1.9,9,3.83,13.04c1.04,2.17,2.44,4.09,3.47,6.27
	c1.02,2.17,1.65,4.54,2.27,6.89c1.31,4.99,2.63,10,3.18,15.17c0.46,4.39,0.32,9.06-1.57,13c-2.47,5.18-7.49,8.24-12.43,10.37
	c-5.2,2.24-10.92,3.81-16.31,2.36c-4.04-1.08-7.54-3.76-10.81-6.56c-7.36-6.29-14.07-13.43-20.77-20.56
	c-4.65-4.95-9.32-9.93-13.36-15.5c-4.2-5.81-7.67-12.23-11.61-18.27c-5.74-8.8-12.73-17.39-14.12-28.17
	c-1.54-12,4.46-23.97,12.45-32.44c5.11-5.42,11.32-9.93,18.27-11.25c4.24-0.81,8.58-0.4,12.8,0.37c5.85,1.07,11.6,2.83,17.09,5.26
	c6.38,2.82,6.31,4.08,7.97,11.28C825.96,225.9,830.1,237.14,835.56,247.54z"/>
<g>
	<g>
		<g>
			<path class="st3" d="M805.38,220.05c0.47-12.19-9.78-22.49-22.89-23c-13.11-0.51-24.13,8.97-24.6,21.16
				c-0.08,2.04,0.17,4.01,0.65,5.9c0,0.48-0.01,0.97-0.03,1.48c-0.24,4.4-0.21,8.83,0.48,13.21c1.35,8.51,5.41,16.53,13.5,21.65
				c2.69,1.71,5.81,3.05,9.1,3.15c4.43,0.14,8.58-1.98,11.76-4.68c10.52-8.94,11.94-22.93,11.74-36.19
				C805.23,221.86,805.34,220.96,805.38,220.05z"/>
		</g>
	</g>
</g>
<path class="st2" d="M766.94,196.67c-5.24,4.1-10.77,8.61-12.67,14.99c-1.66,5.58-0.29,11.93-2.95,17.11
	c-2.48,4.82-8.06,7.76-9.6,12.95c-1.51,5.06,1.65,10.65,6.21,13.32c1.06,0.62,2.23,1.15,2.96,2.14c0.66,0.89,0.87,2.04,0.96,3.15
	c0.21,2.48-0.04,5-0.74,7.38c-0.2,0.68-0.44,1.39-0.3,2.09c0.29,1.46,2.02,2.12,3.51,2.15c1.48,0.03,3.04-0.29,4.41,0.28
	c0.91,0.38,1.61,1.11,2.33,1.77c2.66,2.46,6.98,4.27,9.71,1.88c1.7-1.48,2-4.09,1.39-6.26c-0.61-2.17-1.96-4.04-3.17-5.94
	c-2.4-3.78-4.31-7.84-6.21-11.89c-1.64-3.49-3.3-7.05-3.75-10.88c-0.39-3.29,0.14-6.62,0.67-9.89c0.47-2.91,0.94-5.82,1.4-8.73
	c0.38-2.35,0.77-4.76,1.93-6.84c1.61-2.9,4.48-4.84,6.69-7.32c2.81-3.15,4.47-7.27,4.76-11.48
	C774.98,189.08,770.42,193.95,766.94,196.67z"/>
<path class="st2" d="M797.48,212.68c4.5,2.67,6.94,8.39,5.77,13.48c-1.06,4.58-4.66,8.41-4.99,13.09
	c-0.35,5.01,3.16,9.71,2.71,14.72c-0.33,3.69-2.72,6.83-4.89,9.98c2.05,0.15,4.05,0.49,5.98,1.02c0.55-0.68,1.18-1.27,1.94-1.71
	c2.27-1.32,5.19-0.99,7.54-2.18c7.03-3.57,2.77-15.73,8.49-21.15c1.46-1.38,3.43-2.15,4.79-3.63c2.82-3.06,2.03-7.97,0.32-11.76
	c-1.71-3.79-4.2-7.44-4.31-11.6c-0.06-1.96,0.43-3.92,0.16-5.86c-0.67-4.77-5.46-7.68-9.73-9.89c-7.56-3.92-15.38-7.92-23.87-8.61
	c-7.39-0.6-20.94,5.02-16.73,14.67C774.96,213.12,789.9,208.18,797.48,212.68z"/>
<g>
	<path class="st3" d="M751.91,323.73c-3.5,7.93-7.17,16.67-14.6,20.74c-4.4,2.41-9.52,2.79-14.44,2.72
		c-8.7-0.12-17.3-1.48-25.88-2.85c-3.44-0.55-7.06-1.19-9.69-3.51c-2.63-2.33-3.7-6.95-1.26-9.59c12.49-0.07,24.98-0.14,37.47-0.2
		c1.16-0.01,2.37-0.02,3.41-0.58c1.27-0.68,2.06-2.03,2.77-3.31c5.45-9.87,10.15-20.17,14.04-30.78c1.5-4.08,2.91-8.28,5.47-11.76
		c2.56-3.48,6.53-6.18,10.69-5.88C780.35,280.2,755.2,316.25,751.91,323.73z"/>
</g>
<g>
	<path class="st3" d="M680.05,330.93c-0.43-0.13-0.9-0.26-1.34-0.14c-0.45,0.13-0.79,0.49-1.2,0.73c-1.31,0.77-2.9,0.11-4.28-0.44
		c-1.38-0.55-3.17-0.9-4.19,0.24c-0.41,0.46-0.6,1.07-0.77,1.66c-0.55,1.93-0.92,4.1,0.02,5.83c0.48,0.87,1.25,1.53,2.09,2.03
		c4.24,2.54,9.59,1.19,14.52,1.31c0.9,0.02,1.84,0.09,2.68-0.29c2.19-1,2.65-5.08,1.56-7.04
		C687.6,332.08,682.78,331.74,680.05,330.93z"/>
</g>
<path class="st4" d="M697.39,344.78c0.14,0.76,0.3,1.56,0.77,2.15c0.72,0.91,1.97,1.11,3.1,1.25c8.55,1.05,17.14,1.8,25.75,2.24
	c4.05,0.21,8.43,0.26,11.82-2.14c2.3-1.62,3.83-4.17,5.28-6.63c2.61-4.42,5.22-8.84,7.84-13.26c4.13-7,8.29-14.05,11.09-21.71
	c2.8-7.66,4.18-16.06,2.58-23.99c-0.46-2.27-1.26-4.64-3.06-6c-3.07-2.31-7.49-0.68-10.61,1.68c-1.69,1.28-3.25,2.76-4.51,4.49
	c-1.45,1.99-2.47,4.26-3.48,6.52c-5.53,12.31-11.05,24.61-16.58,36.92c-0.48,1.07-1.05,2.24-2.08,2.73
	c-0.72,0.34-1.55,0.29-2.33,0.24c-7.91-0.58-15.83-1.24-23.75-1.73c-4.24-0.26-3.96,1.37-3.55,5.34
	C696.09,336.87,696.66,340.84,697.39,344.78z"/>
<g>
	<path class="st5" d="M781.47,427.42c-1.06,9.06-1.2,18.19-1.3,27.31c-0.1,9.39-0.17,18.77-0.19,28.16
		c-0.03,10.04-0.02,20.07,0.23,30.11c0.69,28.23,1.59,69.18,4.13,97.3c3.95,0.97,8.07,1.25,12.12,0.85
		c2.77-35.34,3.57-84.1,10.97-118.77c5.97-27.99,16.55-54.92,16.49-83.54c-0.02-8.58-1.32-18.2-7.23-24.88
		c-4.33-4.91-13.02-9.6-19.21-5.28c-5.45,3.8-7.46,13.2-9.36,19.06C785,407.39,782.66,417.33,781.47,427.42z"/>
	<path class="st5" d="M737.89,402.07c-2.17,9.39-4.3,35.75-5.6,45.31c-1.34,9.85-2.65,19.7-3.93,29.55
		c-1.36,10.54-2.69,21.08-3.8,31.65c-3.13,29.72-6.2,72.39-7.63,102.21c3.47,1.47,10.28,2.25,14.02,2.29
		c7.23-36.8,14.1-87.7,25.46-123.26c9.17-28.7,20.31-55.94,24.07-86c1.13-9.02-1-18.86-5.49-26.57c-3.29-5.65-10.59-11.58-16.8-7.77
		c-5.47,3.36-7.77-3.78-10.28,2.15C743.77,381.43,740.32,391.6,737.89,402.07z"/>
	<path class="st6" d="M731.63,605.88c0.44,0.06,0.89,0.15,1.23,0.43c0.52,0.42,0.65,1.15,0.74,1.82c1.29,9.85-0.87,19.88-2.36,29.71
		c-1.04,6.88-0.57,6.99-2.6,14.9c-1.07,0.41-4.83,0.88-4.87-0.27c-0.23-6.08-0.13-8.04,0.29-14.11c0.07-1,0.15-2.03-0.19-2.98
		c-0.33-0.95-1.18-1.79-2.19-1.77c-1.69,0.03-2.39,2.16-2.61,3.84c-0.37,2.77-0.74,5.54-1.12,8.31c-0.44,3.28-1.08,2.8-3.73,4.79
		c-1.64,1.23-3.75,1.58-5.77,1.89c-5.39,0.83-10.81,1.67-16.27,1.77c-2.38,0.04-4.85-0.08-6.94-1.21c-2.62-1.41-4.23-4.17-5.28-6.95
		c-1.58-4.14-2.02-5.22,1.05-8.4c2.22-2.3,5.67-2.89,8.87-2.9s6.45,0.43,9.56-0.31c2.34-0.56,4.48-1.76,6.53-3.01
		c2.12-1.29,4.26-2.73,5.55-4.84c1.31-2.15,1.59-4.74,1.79-7.25c0.28-3.54-0.96-10.54,2.55-12.81
		C718.95,604.51,728.29,605.4,731.63,605.88z"/>
	<path class="st6" d="M789.4,601.62c2.73-0.25,5.73,0.6,7.36,2.81c0.76,1.03,1.17,2.27,1.48,3.51c2.59,10.11-0.32,21.19,3.16,31.03
		c0.58,1.65,1.34,3.25,1.72,4.96c0.57,2.6-0.81,2.23-0.39,4.85c0.14,0.85,0.36,1.71,0.23,2.56c-0.26,1.79-1.92,3-3.47,3.91
		c-2.64,1.55-5.65,2.91-8.66,2.37c-1.61-0.29-3.07-1.1-4.5-1.9c-0.79-0.44-1.59-0.9-2.22-1.55c-0.75-0.79-1.2-1.81-1.56-2.83
		c-2.4-6.77-0.71-11.09-0.87-18.28c-0.16-7.1-1.15-14.17-1.1-21.28c0.01-2.14-0.39-5.5,1.13-7.27
		C783.32,602.63,787.12,601.83,789.4,601.62z"/>
</g>
<path class="st7" d="M707.89,445.97c-2.98,3.53-6.44,7.73-6.11,13.1c0.37,6.1,5.48,9.48,9.95,10c4.47,0.52,9.21-0.5,13.26,2.13
	c5.18,3.36,7.59,11.6,12.05,16.53c4.17,4.62,10.17,5.94,15.2,3.35c5.04-2.6,8.88-8.67,14.05-10.76c10.07-4.08,22.48,7.79,30.68-1.19
	c3.39-3.71,5.05-10.33,9.11-12.43c4.62-2.39,9.67,2.42,14.57,1.65c4.81-0.75,8.4-6.89,9.49-13.33c1.09-6.44,0.21-13.17-0.67-19.67
	c-1.38-10.18-2.76-20.36-4.14-30.54c-1.14-8.43-3.12-18.27-9.03-21.15c-3.62-1.76-7.6-0.23-11.26,1.36
	c-10.73,4.65-21.43,9.75-32.54,12.21c-6.79,1.5-9.75-8.86-16.59-10.08c-7.69-1.38-11.61-7.46-16.49,1.99
	C730.98,405.44,719.03,432.76,707.89,445.97z"/>
<path class="st8" d="M752.76,285.99c-2.47,8.54-3.54,17.4-4.87,26.19c-2.99,19.73-7.33,39.23-11.67,58.7
	c-1.29,5.79-2.58,11.58-3.87,17.38c-0.16,0.73-0.33,1.49-0.17,2.22c0.14,0.63,0.5,1.18,0.88,1.7c1.92,2.62,4.49,4.76,7.41,6.18
	c4.74,2.29,10.16,2.63,15.42,2.74c20.83,0.45,41.73-1.97,61.91-7.16c1.18-0.3,2.41-0.64,3.33-1.45c1.39-1.22,1.77-3.21,1.91-5.06
	c0.85-11.29-4.07-22.15-5.76-33.35c-1.24-8.19-0.74-16.57-1.84-24.78c-0.93-6.99-3-13.78-3.92-20.77
	c-0.65-4.93-0.71-9.94-1.67-14.81c-1.06-5.42-3.2-10.62-3.75-16.11c-0.26-2.64-0.16-5.33-0.81-7.89s-2.29-5.1-4.81-5.89
	c-2.16-0.68-4.49,0.03-6.66,0.71c-4.98,1.56-10.08,2.98-15.3,3.14c-5.46,0.16-12.41-4.67-16.6-0.65
	C757.2,271.58,754.53,279.87,752.76,285.99z"/>
<path class="st9" d="M635.99,176.07c-0.02-14.89,1.01-45.47-2.38-56.58c-2.77-9.1-16.99-6.55-20.88-6.29
	c-6.98,0.46-13.96,0-20.95,0.67c-15.75,1.51-28.37-2.64-44.1-0.08c-1.89,0.31-7,2.76-8.61,5.85c-3.32,6.38-2.32,28.53-2.3,40.84
	c0.12,92.71,0.05,168.75-0.46,261.46c-0.21,37.96-0.83,57.9,0.61,84.09c0.49,8.87,1.36,21.39,3.48,27.49
	c3.61,10.4,13.26,8.73,18.12,8.46c22.94-1.27,45.11,5.35,67.94-1.17c1.62-0.46,3.3-0.99,4.68-3.64c3.48-6.66,4.51-36.47,4.47-49.35
	c-0.28-101.01,0.42-153.24,0.42-247.74C636.04,218.63,636.03,206.88,635.99,176.07z"/>
<g>
	<path class="st10" d="M617.35,219.28c-0.01-1.48,0.46-4.53-1.08-5.64c-1.25-0.91-7.68-0.65-9.44-0.63c-3.16,0.05-6.31,0-9.47,0.07
		c-7.12,0.15-12.83-0.26-19.94-0.01c-0.85,0.03-3.17,0.28-3.89,0.58c-1.5,0.64-1.05,2.84-1.04,4.07c0.05,9.24,0.02,16.82-0.21,26.06
		c-0.09,3.78-0.38,5.77,0.28,8.38c0.22,0.88,0.61,2.13,1.57,2.74c1.63,1.04,5.99,0.87,8.19,0.84c10.37-0.13,20.4,0.53,30.72-0.12
		c0.73-0.05,1.49-0.1,2.12-0.36c1.57-0.66,2.04-3.64,2.02-4.92c-0.13-10.07,0.19-15.28,0.19-24.7
		C617.37,223.52,617.36,222.35,617.35,219.28z"/>
	<path class="st11" d="M614.93,219.57c-0.01-1.03,0.41-3.16-0.96-3.93c-1.12-0.63-6.85-0.46-8.42-0.44c-2.81,0.03-5.63,0-8.44,0.05
		c-6.35,0.11-11.43-0.18-17.78-0.01c-0.76,0.02-2.82,0.19-3.47,0.41c-1.34,0.44-0.93,1.98-0.93,2.84
		c0.05,6.44,0.02,11.73-0.18,18.17c-0.08,2.64-0.34,4.02,0.25,5.84c0.2,0.62,0.55,1.49,1.4,1.91c0.97,0.48,3.04,0.59,4.89,0.6
		c0.03,0.98-0.03,1.43-0.01,2.84c0.01,0.56-0.13,0.65,0.26,0.94c0.13,0.1,0.37,0.24,0.94,0.31c0.61,0.07,1.86,0.09,3.03,0.1
		c0.02,0.91,0,1.39,0.06,2.77c0.02,0.43-0.16,0.65,0.11,0.95c0.09,0.1,0.25,0.24,0.65,0.31c0.67,0.12,2.46,0.1,3.37,0.1
		c4.26-0.01,8.38,0.06,12.62-0.01c0.3-0.01,0.61-0.01,0.87-0.04c0.65-0.07,0.84-0.41,0.83-0.55c-0.05-1.14,0.08-1.72,0.08-2.78
		c0-0.24,0-0.37-0.01-0.72l0-0.01c0.54-0.01,1.08-0.01,1.63-0.01c0.44-0.01,0.89-0.01,1.26-0.04c0.94-0.07,1.22-0.41,1.21-0.55
		c-0.07-1.14,0.11-1.72,0.11-2.78c0-0.24,0-0.37-0.01-0.72c0-0.02,0-0.04,0.01-0.07c0.93-0.03,1.86-0.06,2.8-0.11
		c0.65-0.03,1.33-0.07,1.89-0.25c1.4-0.46,1.82-2.53,1.8-3.43c-0.11-7.02,0.17-10.65,0.17-17.22
		C614.95,222.53,614.95,221.72,614.93,219.57z"/>
	<g>
		<path class="st9" d="M580.3,221.27c-0.01-1.12,0.01-2.02,0-3.14c0-0.13-0.01-0.5-0.02-0.61c-0.02-0.24-0.1-0.22-0.14-0.22
			c-0.35,0.01-0.49,0-0.98,0.02c-0.14,0.01-0.22-0.06-0.31,0.04c-0.03,0.03-0.08,0.1-0.1,0.25c-0.04,0.26-0.03,0.94-0.03,1.29
			c0,1.63-0.02,3.21,0,4.83c0,0.12,0,0.23,0.01,0.33c0.02,0.25,0.14,0.32,0.18,0.32c0.38-0.02,0.57,0.03,0.92,0.03
			c0.08,0,0.12,0,0.24,0c0.06,0,0.17,0.07,0.21-0.17c0.03-0.2,0.02-1.21,0.02-1.49C580.3,222.26,580.3,221.76,580.3,221.27z"/>
		<path class="st9" d="M583.37,221.27c-0.01-1.12,0.01-2.02,0-3.14c0-0.13-0.01-0.5-0.02-0.61c-0.02-0.24-0.1-0.22-0.14-0.22
			c-0.35,0.01-0.49,0-0.98,0.02c-0.14,0.01-0.22-0.06-0.31,0.04c-0.03,0.03-0.08,0.1-0.1,0.25c-0.04,0.26-0.03,0.94-0.03,1.29
			c0,1.63-0.02,3.21,0,4.83c0,0.12,0,0.23,0.01,0.33c0.02,0.25,0.14,0.32,0.18,0.32c0.38-0.02,0.57,0.03,0.92,0.03
			c0.08,0,0.12,0,0.24,0c0.06,0,0.17,0.07,0.21-0.17c0.03-0.2,0.02-1.21,0.02-1.49C583.37,222.26,583.38,221.76,583.37,221.27z"/>
		<path class="st9" d="M586.38,221.27c-0.01-1.12,0.01-2.02,0-3.14c0-0.13-0.01-0.5-0.02-0.61c-0.02-0.24-0.1-0.22-0.14-0.22
			c-0.35,0.01-0.49,0-0.98,0.02c-0.14,0.01-0.22-0.06-0.31,0.04c-0.03,0.03-0.08,0.1-0.1,0.25c-0.04,0.26-0.03,0.94-0.03,1.29
			c0,1.63-0.02,3.21,0,4.83c0,0.12,0,0.23,0.01,0.33c0.02,0.25,0.14,0.32,0.18,0.32c0.38-0.02,0.57,0.03,0.92,0.03
			c0.08,0,0.12,0,0.24,0c0.06,0,0.17,0.07,0.21-0.17c0.03-0.2,0.02-1.21,0.02-1.49C586.38,222.26,586.38,221.76,586.38,221.27z"/>
		<path class="st9" d="M589.45,221.27c-0.01-1.12,0.01-2.02,0-3.14c0-0.13-0.01-0.5-0.02-0.61c-0.02-0.24-0.1-0.22-0.14-0.22
			c-0.35,0.01-0.49,0-0.98,0.02c-0.14,0.01-0.22-0.06-0.31,0.04c-0.03,0.03-0.08,0.1-0.1,0.25c-0.04,0.26-0.03,0.94-0.03,1.29
			c0,1.63-0.02,3.21,0,4.83c0,0.12,0,0.23,0.01,0.33c0.02,0.25,0.14,0.32,0.18,0.32c0.38-0.02,0.57,0.03,0.92,0.03
			c0.08,0,0.12,0,0.24,0c0.06,0,0.17,0.07,0.21-0.17c0.03-0.2,0.02-1.21,0.02-1.49C589.45,222.26,589.45,221.76,589.45,221.27z"/>
		<path class="st9" d="M592.59,221.27c-0.01-1.12,0.01-2.02,0-3.14c0-0.13-0.01-0.5-0.02-0.61c-0.02-0.24-0.1-0.22-0.14-0.22
			c-0.35,0.01-0.49,0-0.98,0.02c-0.14,0.01-0.22-0.06-0.31,0.04c-0.03,0.03-0.08,0.1-0.1,0.25c-0.04,0.26-0.03,0.94-0.03,1.29
			c0,1.63-0.02,3.21,0,4.83c0,0.12,0,0.23,0.01,0.33c0.02,0.25,0.14,0.32,0.18,0.32c0.38-0.02,0.57,0.03,0.92,0.03
			c0.08,0,0.12,0,0.24,0c0.06,0,0.17,0.07,0.21-0.17c0.03-0.2,0.02-1.21,0.02-1.49C592.59,222.26,592.6,221.76,592.59,221.27z"/>
		<path class="st9" d="M595.67,221.27c-0.01-1.12,0.01-2.02,0-3.14c0-0.13-0.01-0.5-0.02-0.61c-0.02-0.24-0.1-0.22-0.14-0.22
			c-0.35,0.01-0.49,0-0.98,0.02c-0.14,0.01-0.22-0.06-0.31,0.04c-0.03,0.03-0.08,0.1-0.1,0.25c-0.04,0.26-0.03,0.94-0.03,1.29
			c0,1.63-0.02,3.21,0,4.83c0,0.12,0,0.23,0.01,0.33c0.02,0.25,0.14,0.32,0.18,0.32c0.38-0.02,0.57,0.03,0.92,0.03
			c0.08,0,0.12,0,0.24,0c0.06,0,0.17,0.07,0.21-0.17c0.03-0.2,0.02-1.21,0.02-1.49C595.67,222.26,595.67,221.76,595.67,221.27z"/>
		<path class="st9" d="M598.67,221.27c-0.01-1.12,0.01-2.02,0-3.14c0-0.13-0.01-0.5-0.02-0.61c-0.02-0.24-0.1-0.22-0.14-0.22
			c-0.35,0.01-0.49,0-0.98,0.02c-0.14,0.01-0.22-0.06-0.31,0.04c-0.03,0.03-0.08,0.1-0.1,0.25c-0.04,0.26-0.03,0.94-0.03,1.29
			c0,1.63-0.02,3.21,0,4.83c0,0.12,0,0.23,0.01,0.33c0.02,0.25,0.14,0.32,0.18,0.32c0.38-0.02,0.57,0.03,0.92,0.03
			c0.08,0,0.12,0,0.24,0c0.06,0,0.17,0.07,0.21-0.17c0.03-0.2,0.02-1.21,0.02-1.49C598.67,222.26,598.67,221.76,598.67,221.27z"/>
		<path class="st9" d="M601.74,221.27c-0.01-1.12,0.01-2.02,0-3.14c0-0.13-0.01-0.5-0.02-0.61c-0.02-0.24-0.1-0.22-0.14-0.22
			c-0.35,0.01-0.49,0-0.98,0.02c-0.14,0.01-0.22-0.06-0.31,0.04c-0.03,0.03-0.08,0.1-0.1,0.25c-0.04,0.26-0.03,0.94-0.03,1.29
			c0,1.63-0.02,3.21,0,4.83c0,0.12,0,0.23,0.01,0.33c0.02,0.25,0.14,0.32,0.18,0.32c0.38-0.02,0.57,0.03,0.92,0.03
			c0.08,0,0.12,0,0.24,0c0.06,0,0.17,0.07,0.21-0.17c0.03-0.2,0.02-1.21,0.02-1.49C601.74,222.26,601.75,221.76,601.74,221.27z"/>
		<path class="st9" d="M604.83,221.28c-0.01-1.12,0.01-2.02,0-3.14c0-0.13-0.01-0.5-0.02-0.61c-0.02-0.24-0.1-0.22-0.14-0.22
			c-0.35,0.01-0.49,0-0.98,0.02c-0.14,0.01-0.22-0.06-0.31,0.04c-0.03,0.03-0.08,0.1-0.1,0.25c-0.04,0.26-0.03,0.94-0.03,1.29
			c0,1.63-0.02,3.21,0,4.83c0,0.12,0,0.23,0.01,0.33c0.02,0.25,0.14,0.32,0.18,0.32c0.38-0.02,0.57,0.03,0.92,0.03
			c0.08,0,0.12,0,0.24,0c0.06,0,0.17,0.07,0.21-0.17c0.03-0.2,0.02-1.21,0.02-1.49C604.84,222.27,604.84,221.78,604.83,221.28z"/>
		<path class="st9" d="M607.91,221.28c-0.01-1.12,0.01-2.02,0-3.14c0-0.13-0.01-0.5-0.02-0.61c-0.02-0.24-0.1-0.22-0.14-0.22
			c-0.35,0.01-0.49,0-0.98,0.02c-0.14,0.01-0.22-0.06-0.31,0.04c-0.03,0.03-0.08,0.1-0.1,0.25c-0.04,0.26-0.03,0.94-0.03,1.29
			c0,1.63-0.02,3.21,0,4.83c0,0.12,0,0.23,0.01,0.33c0.02,0.25,0.14,0.32,0.18,0.32c0.38-0.02,0.57,0.03,0.92,0.03
			c0.08,0,0.12,0,0.24,0c0.06,0,0.17,0.07,0.21-0.17c0.03-0.2,0.02-1.21,0.02-1.49C607.91,222.27,607.91,221.78,607.91,221.28z"/>
		<path class="st9" d="M610.91,221.28c-0.01-1.12,0.01-2.02,0-3.14c0-0.13-0.01-0.5-0.02-0.61c-0.02-0.24-0.1-0.22-0.14-0.22
			c-0.35,0.01-0.49,0-0.98,0.02c-0.14,0.01-0.22-0.06-0.31,0.04c-0.03,0.03-0.08,0.1-0.1,0.25c-0.04,0.26-0.03,0.94-0.03,1.29
			c0,1.63-0.02,3.21,0,4.83c0,0.12,0,0.23,0.01,0.33c0.02,0.25,0.14,0.32,0.18,0.32c0.38-0.02,0.57,0.03,0.92,0.03
			c0.08,0,0.12,0,0.24,0c0.06,0,0.17,0.07,0.21-0.17c0.03-0.2,0.02-1.21,0.02-1.49C610.91,222.27,610.91,221.78,610.91,221.28z"/>
	</g>
</g>
<g>
	<path class="st10" d="M617.35,162.79c-0.01-1.48,0.46-4.53-1.08-5.64c-1.25-0.91-7.68-0.65-9.44-0.63c-3.16,0.05-6.31,0-9.47,0.07
		c-7.12,0.15-12.83-0.26-19.94-0.01c-0.85,0.03-3.17,0.28-3.89,0.58c-1.5,0.64-1.05,2.84-1.04,4.07c0.05,9.24,0.02,16.82-0.21,26.06
		c-0.09,3.78-0.38,5.77,0.28,8.38c0.22,0.88,0.61,2.13,1.57,2.74c1.63,1.04,5.99,0.87,8.19,0.84c10.37-0.13,20.4,0.53,30.72-0.12
		c0.73-0.05,1.49-0.1,2.12-0.36c1.57-0.66,2.04-3.64,2.02-4.92c-0.13-10.07,0.19-15.28,0.19-24.7
		C617.37,167.04,617.36,165.87,617.35,162.79z"/>
	<path class="st11" d="M614.93,163.09c-0.01-1.03,0.41-3.16-0.96-3.93c-1.12-0.63-6.85-0.46-8.42-0.44c-2.81,0.03-5.63,0-8.44,0.05
		c-6.35,0.1-11.43-0.18-17.78-0.01c-0.76,0.02-2.82,0.19-3.47,0.41c-1.34,0.44-0.93,1.98-0.93,2.84c0.05,6.44,0.02,11.73-0.18,18.17
		c-0.08,2.64-0.34,4.02,0.25,5.84c0.2,0.62,0.55,1.49,1.4,1.91c0.97,0.48,3.04,0.59,4.89,0.6c0.03,0.98-0.03,1.43-0.01,2.84
		c0.01,0.56-0.13,0.65,0.26,0.94c0.13,0.1,0.37,0.24,0.94,0.31c0.61,0.07,1.86,0.09,3.03,0.1c0.02,0.91,0,1.39,0.06,2.77
		c0.02,0.43-0.16,0.65,0.11,0.95c0.09,0.1,0.25,0.24,0.65,0.31c0.67,0.12,2.46,0.1,3.37,0.1c4.26-0.01,8.38,0.06,12.62-0.01
		c0.3-0.01,0.61-0.01,0.87-0.04c0.65-0.07,0.84-0.41,0.83-0.55c-0.05-1.14,0.08-1.72,0.08-2.78c0-0.24,0-0.37-0.01-0.72l0-0.01
		c0.54,0,1.08,0,1.63-0.01c0.44-0.01,0.89-0.01,1.26-0.04c0.94-0.07,1.22-0.41,1.21-0.55c-0.07-1.14,0.11-1.72,0.11-2.78
		c0-0.24,0-0.37-0.01-0.72c0-0.02,0-0.04,0.01-0.07c0.93-0.03,1.86-0.06,2.8-0.11c0.65-0.03,1.33-0.07,1.89-0.25
		c1.4-0.46,1.82-2.53,1.8-3.43c-0.11-7.02,0.17-10.65,0.17-17.22C614.95,166.05,614.95,165.23,614.93,163.09z"/>
	<g>
		<path class="st9" d="M580.3,164.78c-0.01-1.12,0.01-2.02,0-3.14c0-0.13-0.01-0.5-0.02-0.61c-0.02-0.24-0.1-0.22-0.14-0.22
			c-0.35,0.01-0.49,0-0.98,0.02c-0.14,0.01-0.22-0.06-0.31,0.04c-0.03,0.03-0.08,0.1-0.1,0.25c-0.04,0.26-0.03,0.94-0.03,1.29
			c0,1.63-0.02,3.21,0,4.83c0,0.12,0,0.23,0.01,0.33c0.02,0.25,0.14,0.32,0.18,0.32c0.38-0.02,0.57,0.03,0.92,0.03
			c0.08,0,0.12,0,0.24,0c0.06,0,0.17,0.07,0.21-0.17c0.03-0.2,0.02-1.21,0.02-1.49C580.3,165.78,580.3,165.28,580.3,164.78z"/>
		<path class="st9" d="M583.37,164.78c-0.01-1.12,0.01-2.02,0-3.14c0-0.13-0.01-0.5-0.02-0.61c-0.02-0.24-0.1-0.22-0.14-0.22
			c-0.35,0.01-0.49,0-0.98,0.02c-0.14,0.01-0.22-0.06-0.31,0.04c-0.03,0.03-0.08,0.1-0.1,0.25c-0.04,0.26-0.03,0.94-0.03,1.29
			c0,1.63-0.02,3.21,0,4.83c0,0.12,0,0.23,0.01,0.33c0.02,0.25,0.14,0.32,0.18,0.32c0.38-0.02,0.57,0.03,0.92,0.03
			c0.08,0,0.12,0,0.24,0c0.06,0,0.17,0.07,0.21-0.17c0.03-0.2,0.02-1.21,0.02-1.49C583.37,165.78,583.38,165.28,583.37,164.78z"/>
		<path class="st9" d="M586.38,164.78c-0.01-1.12,0.01-2.02,0-3.14c0-0.13-0.01-0.5-0.02-0.61c-0.02-0.24-0.1-0.22-0.14-0.22
			c-0.35,0.01-0.49,0-0.98,0.02c-0.14,0.01-0.22-0.06-0.31,0.04c-0.03,0.03-0.08,0.1-0.1,0.25c-0.04,0.26-0.03,0.94-0.03,1.29
			c0,1.63-0.02,3.21,0,4.83c0,0.12,0,0.23,0.01,0.33c0.02,0.25,0.14,0.32,0.18,0.32c0.38-0.02,0.57,0.03,0.92,0.03
			c0.08,0,0.12,0,0.24,0c0.06,0,0.17,0.07,0.21-0.17c0.03-0.2,0.02-1.21,0.02-1.49C586.38,165.78,586.38,165.28,586.38,164.78z"/>
		<path class="st9" d="M589.45,164.78c-0.01-1.12,0.01-2.02,0-3.14c0-0.13-0.01-0.5-0.02-0.61c-0.02-0.24-0.1-0.22-0.14-0.22
			c-0.35,0.01-0.49,0-0.98,0.02c-0.14,0.01-0.22-0.06-0.31,0.04c-0.03,0.03-0.08,0.1-0.1,0.25c-0.04,0.26-0.03,0.94-0.03,1.29
			c0,1.63-0.02,3.21,0,4.83c0,0.12,0,0.23,0.01,0.33c0.02,0.25,0.14,0.32,0.18,0.32c0.38-0.02,0.57,0.03,0.92,0.03
			c0.08,0,0.12,0,0.24,0c0.06,0,0.17,0.07,0.21-0.17c0.03-0.2,0.02-1.21,0.02-1.49C589.45,165.78,589.45,165.28,589.45,164.78z"/>
		<path class="st9" d="M592.59,164.78c-0.01-1.12,0.01-2.02,0-3.14c0-0.13-0.01-0.5-0.02-0.61c-0.02-0.24-0.1-0.22-0.14-0.22
			c-0.35,0.01-0.49,0-0.98,0.02c-0.14,0.01-0.22-0.06-0.31,0.04c-0.03,0.03-0.08,0.1-0.1,0.25c-0.04,0.26-0.03,0.94-0.03,1.29
			c0,1.63-0.02,3.21,0,4.83c0,0.12,0,0.23,0.01,0.33c0.02,0.25,0.14,0.32,0.18,0.32c0.38-0.02,0.57,0.03,0.92,0.03
			c0.08,0,0.12,0,0.24,0c0.06,0,0.17,0.07,0.21-0.17c0.03-0.2,0.02-1.21,0.02-1.49C592.59,165.78,592.6,165.28,592.59,164.78z"/>
		<path class="st9" d="M595.67,164.78c-0.01-1.12,0.01-2.02,0-3.14c0-0.13-0.01-0.5-0.02-0.61c-0.02-0.24-0.1-0.22-0.14-0.22
			c-0.35,0.01-0.49,0-0.98,0.02c-0.14,0.01-0.22-0.06-0.31,0.04c-0.03,0.03-0.08,0.1-0.1,0.25c-0.04,0.26-0.03,0.94-0.03,1.29
			c0,1.63-0.02,3.21,0,4.83c0,0.12,0,0.23,0.01,0.33c0.02,0.25,0.14,0.32,0.18,0.32c0.38-0.02,0.57,0.03,0.92,0.03
			c0.08,0,0.12,0,0.24,0c0.06,0,0.17,0.07,0.21-0.17c0.03-0.2,0.02-1.21,0.02-1.49C595.67,165.78,595.67,165.28,595.67,164.78z"/>
		<path class="st9" d="M598.67,164.78c-0.01-1.12,0.01-2.02,0-3.14c0-0.13-0.01-0.5-0.02-0.61c-0.02-0.24-0.1-0.22-0.14-0.22
			c-0.35,0.01-0.49,0-0.98,0.02c-0.14,0.01-0.22-0.06-0.31,0.04c-0.03,0.03-0.08,0.1-0.1,0.25c-0.04,0.26-0.03,0.94-0.03,1.29
			c0,1.63-0.02,3.21,0,4.83c0,0.12,0,0.23,0.01,0.33c0.02,0.25,0.14,0.32,0.18,0.32c0.38-0.02,0.57,0.03,0.92,0.03
			c0.08,0,0.12,0,0.24,0c0.06,0,0.17,0.07,0.21-0.17c0.03-0.2,0.02-1.21,0.02-1.49C598.67,165.78,598.67,165.28,598.67,164.78z"/>
		<path class="st9" d="M601.74,164.78c-0.01-1.12,0.01-2.02,0-3.14c0-0.13-0.01-0.5-0.02-0.61c-0.02-0.24-0.1-0.22-0.14-0.22
			c-0.35,0.01-0.49,0-0.98,0.02c-0.14,0.01-0.22-0.06-0.31,0.04c-0.03,0.03-0.08,0.1-0.1,0.25c-0.04,0.26-0.03,0.94-0.03,1.29
			c0,1.63-0.02,3.21,0,4.83c0,0.12,0,0.23,0.01,0.33c0.02,0.25,0.14,0.32,0.18,0.32c0.38-0.02,0.57,0.03,0.92,0.03
			c0.08,0,0.12,0,0.24,0c0.06,0,0.17,0.07,0.21-0.17c0.03-0.2,0.02-1.21,0.02-1.49C601.74,165.78,601.75,165.28,601.74,164.78z"/>
		<path class="st9" d="M604.83,164.8c-0.01-1.12,0.01-2.02,0-3.14c0-0.13-0.01-0.5-0.02-0.61c-0.02-0.24-0.1-0.22-0.14-0.22
			c-0.35,0.01-0.49,0-0.98,0.02c-0.14,0.01-0.22-0.06-0.31,0.04c-0.03,0.03-0.08,0.1-0.1,0.25c-0.04,0.26-0.03,0.94-0.03,1.29
			c0,1.63-0.02,3.21,0,4.83c0,0.12,0,0.23,0.01,0.33c0.02,0.25,0.14,0.32,0.18,0.32c0.38-0.02,0.57,0.03,0.92,0.03
			c0.08,0,0.12,0,0.24,0c0.06,0,0.17,0.07,0.21-0.17c0.03-0.2,0.02-1.21,0.02-1.49C604.84,165.79,604.84,165.3,604.83,164.8z"/>
		<path class="st9" d="M607.91,164.8c-0.01-1.12,0.01-2.02,0-3.14c0-0.13-0.01-0.5-0.02-0.61c-0.02-0.24-0.1-0.22-0.14-0.22
			c-0.35,0.01-0.49,0-0.98,0.02c-0.14,0.01-0.22-0.06-0.31,0.04c-0.03,0.03-0.08,0.1-0.1,0.25c-0.04,0.26-0.03,0.94-0.03,1.29
			c0,1.63-0.02,3.21,0,4.83c0,0.12,0,0.23,0.01,0.33c0.02,0.25,0.14,0.32,0.18,0.32c0.38-0.02,0.57,0.03,0.92,0.03
			c0.08,0,0.12,0,0.24,0c0.06,0,0.17,0.07,0.21-0.17c0.03-0.2,0.02-1.21,0.02-1.49C607.91,165.79,607.91,165.3,607.91,164.8z"/>
		<path class="st9" d="M610.91,164.8c-0.01-1.12,0.01-2.02,0-3.14c0-0.13-0.01-0.5-0.02-0.61c-0.02-0.24-0.1-0.22-0.14-0.22
			c-0.35,0.01-0.49,0-0.98,0.02c-0.14,0.01-0.22-0.06-0.31,0.04c-0.03,0.03-0.08,0.1-0.1,0.25c-0.04,0.26-0.03,0.94-0.03,1.29
			c0,1.63-0.02,3.21,0,4.83c0,0.12,0,0.23,0.01,0.33c0.02,0.25,0.14,0.32,0.18,0.32c0.38-0.02,0.57,0.03,0.92,0.03
			c0.08,0,0.12,0,0.24,0c0.06,0,0.17,0.07,0.21-0.17c0.03-0.2,0.02-1.21,0.02-1.49C610.91,165.79,610.91,165.3,610.91,164.8z"/>
	</g>
</g>
<g>
	<path class="st10" d="M617.35,275.76c-0.01-1.48,0.46-4.53-1.08-5.64c-1.25-0.91-7.68-0.65-9.44-0.63c-3.16,0.05-6.31,0-9.47,0.07
		c-7.12,0.15-12.83-0.26-19.94-0.01c-0.85,0.03-3.17,0.28-3.89,0.58c-1.5,0.64-1.05,2.84-1.04,4.07c0.05,9.24,0.02,16.82-0.21,26.06
		c-0.09,3.78-0.38,5.77,0.28,8.38c0.22,0.88,0.61,2.13,1.57,2.74c1.63,1.04,5.99,0.87,8.19,0.84c10.37-0.13,20.4,0.53,30.72-0.12
		c0.73-0.05,1.49-0.1,2.12-0.36c1.57-0.66,2.04-3.64,2.02-4.92c-0.13-10.07,0.19-15.28,0.19-24.7
		C617.37,280,617.36,278.83,617.35,275.76z"/>
	<path class="st11" d="M614.93,276.06c-0.01-1.03,0.41-3.16-0.96-3.93c-1.12-0.63-6.85-0.46-8.42-0.44c-2.81,0.03-5.63,0-8.44,0.05
		c-6.35,0.11-11.43-0.18-17.78-0.01c-0.76,0.02-2.82,0.19-3.47,0.41c-1.34,0.44-0.93,1.98-0.93,2.84
		c0.05,6.44,0.02,11.73-0.18,18.17c-0.08,2.64-0.34,4.02,0.25,5.84c0.2,0.62,0.55,1.49,1.4,1.91c0.97,0.48,3.04,0.59,4.89,0.6
		c0.03,0.98-0.03,1.43-0.01,2.84c0.01,0.56-0.13,0.65,0.26,0.94c0.13,0.1,0.37,0.24,0.94,0.31c0.61,0.07,1.86,0.09,3.03,0.1
		c0.02,0.91,0,1.39,0.06,2.77c0.02,0.43-0.16,0.65,0.11,0.95c0.09,0.1,0.25,0.24,0.65,0.31c0.67,0.12,2.46,0.1,3.37,0.1
		c4.26-0.01,8.38,0.06,12.62-0.01c0.3-0.01,0.61-0.01,0.87-0.04c0.65-0.07,0.84-0.41,0.83-0.55c-0.05-1.14,0.08-1.72,0.08-2.78
		c0-0.24,0-0.37-0.01-0.72l0-0.01c0.54,0,1.08,0,1.63-0.01c0.44-0.01,0.89-0.01,1.26-0.04c0.94-0.07,1.22-0.41,1.21-0.55
		c-0.07-1.13,0.11-1.72,0.11-2.78c0-0.24,0-0.37-0.01-0.72c0-0.02,0-0.04,0.01-0.07c0.93-0.03,1.86-0.06,2.8-0.11
		c0.65-0.03,1.33-0.07,1.89-0.25c1.4-0.46,1.82-2.53,1.8-3.43c-0.11-7.02,0.17-10.65,0.17-17.22
		C614.95,279.01,614.95,278.2,614.93,276.06z"/>
	<g>
		<path class="st9" d="M580.3,277.75c-0.01-1.12,0.01-2.02,0-3.14c0-0.13-0.01-0.5-0.02-0.61c-0.02-0.24-0.1-0.22-0.14-0.22
			c-0.35,0.01-0.49,0-0.98,0.02c-0.14,0.01-0.22-0.06-0.31,0.04c-0.03,0.03-0.08,0.1-0.1,0.25c-0.04,0.26-0.03,0.94-0.03,1.29
			c0,1.63-0.02,3.21,0,4.83c0,0.12,0,0.23,0.01,0.33c0.02,0.25,0.14,0.32,0.18,0.32c0.38-0.02,0.57,0.03,0.92,0.03
			c0.08,0,0.12,0,0.24,0c0.06,0,0.17,0.07,0.21-0.17c0.03-0.2,0.02-1.21,0.02-1.49C580.3,278.74,580.3,278.25,580.3,277.75z"/>
		<path class="st9" d="M583.37,277.75c-0.01-1.12,0.01-2.02,0-3.14c0-0.13-0.01-0.5-0.02-0.61c-0.02-0.24-0.1-0.22-0.14-0.22
			c-0.35,0.01-0.49,0-0.98,0.02c-0.14,0.01-0.22-0.06-0.31,0.04c-0.03,0.03-0.08,0.1-0.1,0.25c-0.04,0.26-0.03,0.94-0.03,1.29
			c0,1.63-0.02,3.21,0,4.83c0,0.12,0,0.23,0.01,0.33c0.02,0.25,0.14,0.32,0.18,0.32c0.38-0.02,0.57,0.03,0.92,0.03
			c0.08,0,0.12,0,0.24,0c0.06,0,0.17,0.07,0.21-0.17c0.03-0.2,0.02-1.21,0.02-1.49C583.37,278.74,583.38,278.25,583.37,277.75z"/>
		<path class="st9" d="M586.38,277.75c-0.01-1.12,0.01-2.02,0-3.14c0-0.13-0.01-0.5-0.02-0.61c-0.02-0.24-0.1-0.22-0.14-0.22
			c-0.35,0.01-0.49,0-0.98,0.02c-0.14,0.01-0.22-0.06-0.31,0.04c-0.03,0.03-0.08,0.1-0.1,0.25c-0.04,0.26-0.03,0.94-0.03,1.29
			c0,1.63-0.02,3.21,0,4.83c0,0.12,0,0.23,0.01,0.33c0.02,0.25,0.14,0.32,0.18,0.32c0.38-0.02,0.57,0.03,0.92,0.03
			c0.08,0,0.12,0,0.24,0c0.06,0,0.17,0.07,0.21-0.17c0.03-0.2,0.02-1.21,0.02-1.49C586.38,278.74,586.38,278.25,586.38,277.75z"/>
		<path class="st9" d="M589.45,277.75c-0.01-1.12,0.01-2.02,0-3.14c0-0.13-0.01-0.5-0.02-0.61c-0.02-0.24-0.1-0.22-0.14-0.22
			c-0.35,0.01-0.49,0-0.98,0.02c-0.14,0.01-0.22-0.06-0.31,0.04c-0.03,0.03-0.08,0.1-0.1,0.25c-0.04,0.26-0.03,0.94-0.03,1.29
			c0,1.63-0.02,3.21,0,4.83c0,0.12,0,0.23,0.01,0.33c0.02,0.25,0.14,0.32,0.18,0.32c0.38-0.02,0.57,0.03,0.92,0.03
			c0.08,0,0.12,0,0.24,0c0.06,0,0.17,0.07,0.21-0.17c0.03-0.2,0.02-1.21,0.02-1.49C589.45,278.74,589.45,278.25,589.45,277.75z"/>
		<path class="st9" d="M592.59,277.75c-0.01-1.12,0.01-2.02,0-3.14c0-0.13-0.01-0.5-0.02-0.61c-0.02-0.24-0.1-0.22-0.14-0.22
			c-0.35,0.01-0.49,0-0.98,0.02c-0.14,0.01-0.22-0.06-0.31,0.04c-0.03,0.03-0.08,0.1-0.1,0.25c-0.04,0.26-0.03,0.94-0.03,1.29
			c0,1.63-0.02,3.21,0,4.83c0,0.12,0,0.23,0.01,0.33c0.02,0.25,0.14,0.32,0.18,0.32c0.38-0.02,0.57,0.03,0.92,0.03
			c0.08,0,0.12,0,0.24,0c0.06,0,0.17,0.07,0.21-0.17c0.03-0.2,0.02-1.21,0.02-1.49C592.59,278.74,592.6,278.25,592.59,277.75z"/>
		<path class="st9" d="M595.67,277.75c-0.01-1.12,0.01-2.02,0-3.14c0-0.13-0.01-0.5-0.02-0.61c-0.02-0.24-0.1-0.22-0.14-0.22
			c-0.35,0.01-0.49,0-0.98,0.02c-0.14,0.01-0.22-0.06-0.31,0.04c-0.03,0.03-0.08,0.1-0.1,0.25c-0.04,0.26-0.03,0.94-0.03,1.29
			c0,1.63-0.02,3.21,0,4.83c0,0.12,0,0.23,0.01,0.33c0.02,0.25,0.14,0.32,0.18,0.32c0.38-0.02,0.57,0.03,0.92,0.03
			c0.08,0,0.12,0,0.24,0c0.06,0,0.17,0.07,0.21-0.17c0.03-0.2,0.02-1.21,0.02-1.49C595.67,278.74,595.67,278.25,595.67,277.75z"/>
		<path class="st9" d="M598.67,277.75c-0.01-1.12,0.01-2.02,0-3.14c0-0.13-0.01-0.5-0.02-0.61c-0.02-0.24-0.1-0.22-0.14-0.22
			c-0.35,0.01-0.49,0-0.98,0.02c-0.14,0.01-0.22-0.06-0.31,0.04c-0.03,0.03-0.08,0.1-0.1,0.25c-0.04,0.26-0.03,0.94-0.03,1.29
			c0,1.63-0.02,3.21,0,4.83c0,0.12,0,0.23,0.01,0.33c0.02,0.25,0.14,0.32,0.18,0.32c0.38-0.02,0.57,0.03,0.92,0.03
			c0.08,0,0.12,0,0.24,0c0.06,0,0.17,0.07,0.21-0.17c0.03-0.2,0.02-1.21,0.02-1.49C598.67,278.74,598.67,278.25,598.67,277.75z"/>
		<path class="st9" d="M601.74,277.75c-0.01-1.12,0.01-2.02,0-3.14c0-0.13-0.01-0.5-0.02-0.61c-0.02-0.24-0.1-0.22-0.14-0.22
			c-0.35,0.01-0.49,0-0.98,0.02c-0.14,0.01-0.22-0.06-0.31,0.04c-0.03,0.03-0.08,0.1-0.1,0.25c-0.04,0.26-0.03,0.94-0.03,1.29
			c0,1.63-0.02,3.21,0,4.83c0,0.12,0,0.23,0.01,0.33c0.02,0.25,0.14,0.32,0.18,0.32c0.38-0.02,0.57,0.03,0.92,0.03
			c0.08,0,0.12,0,0.24,0c0.06,0,0.17,0.07,0.21-0.17c0.03-0.2,0.02-1.21,0.02-1.49C601.74,278.74,601.75,278.25,601.74,277.75z"/>
		<path class="st9" d="M604.83,277.76c-0.01-1.12,0.01-2.02,0-3.14c0-0.13-0.01-0.5-0.02-0.61c-0.02-0.24-0.1-0.22-0.14-0.22
			c-0.35,0.01-0.49,0-0.98,0.02c-0.14,0.01-0.22-0.06-0.31,0.04c-0.03,0.03-0.08,0.1-0.1,0.25c-0.04,0.26-0.03,0.94-0.03,1.29
			c0,1.63-0.02,3.21,0,4.83c0,0.12,0,0.23,0.01,0.33c0.02,0.25,0.14,0.32,0.18,0.32c0.38-0.02,0.57,0.03,0.92,0.03
			c0.08,0,0.12,0,0.24,0c0.06,0,0.17,0.07,0.21-0.17c0.03-0.2,0.02-1.21,0.02-1.49C604.84,278.76,604.84,278.26,604.83,277.76z"/>
		<path class="st9" d="M607.91,277.76c-0.01-1.12,0.01-2.02,0-3.14c0-0.13-0.01-0.5-0.02-0.61c-0.02-0.24-0.1-0.22-0.14-0.22
			c-0.35,0.01-0.49,0-0.98,0.02c-0.14,0.01-0.22-0.06-0.31,0.04c-0.03,0.03-0.08,0.1-0.1,0.25c-0.04,0.26-0.03,0.94-0.03,1.29
			c0,1.63-0.02,3.21,0,4.83c0,0.12,0,0.23,0.01,0.33c0.02,0.25,0.14,0.32,0.18,0.32c0.38-0.02,0.57,0.03,0.92,0.03
			c0.08,0,0.12,0,0.24,0c0.06,0,0.17,0.07,0.21-0.17c0.03-0.2,0.02-1.21,0.02-1.49C607.91,278.76,607.91,278.26,607.91,277.76z"/>
		<path class="st9" d="M610.91,277.76c-0.01-1.12,0.01-2.02,0-3.14c0-0.13-0.01-0.5-0.02-0.61c-0.02-0.24-0.1-0.22-0.14-0.22
			c-0.35,0.01-0.49,0-0.98,0.02c-0.14,0.01-0.22-0.06-0.31,0.04c-0.03,0.03-0.08,0.1-0.1,0.25c-0.04,0.26-0.03,0.94-0.03,1.29
			c0,1.63-0.02,3.21,0,4.83c0,0.12,0,0.23,0.01,0.33c0.02,0.25,0.14,0.32,0.18,0.32c0.38-0.02,0.57,0.03,0.92,0.03
			c0.08,0,0.12,0,0.24,0c0.06,0,0.17,0.07,0.21-0.17c0.03-0.2,0.02-1.21,0.02-1.49C610.91,278.76,610.91,278.26,610.91,277.76z"/>
	</g>
</g>
<g>
	<path class="st10" d="M617.35,332.05c-0.01-1.48,0.46-4.53-1.08-5.64c-1.25-0.91-7.68-0.65-9.44-0.63c-3.16,0.05-6.31,0-9.47,0.07
		c-7.12,0.15-12.83-0.26-19.94-0.01c-0.85,0.03-3.17,0.28-3.89,0.58c-1.5,0.64-1.05,2.84-1.04,4.07c0.05,9.24,0.02,16.82-0.21,26.06
		c-0.09,3.78-0.38,5.77,0.28,8.38c0.22,0.88,0.61,2.13,1.57,2.74c1.63,1.04,5.99,0.87,8.19,0.84c10.37-0.13,20.4,0.53,30.72-0.12
		c0.73-0.05,1.49-0.1,2.12-0.36c1.57-0.66,2.04-3.64,2.02-4.92c-0.13-10.07,0.19-15.28,0.19-24.7
		C617.37,336.3,617.36,335.13,617.35,332.05z"/>
	<path class="st11" d="M614.93,332.35c-0.01-1.03,0.41-3.16-0.96-3.93c-1.12-0.63-6.85-0.46-8.42-0.44c-2.81,0.03-5.63,0-8.44,0.05
		c-6.35,0.11-11.43-0.18-17.78-0.01c-0.76,0.02-2.82,0.19-3.47,0.41c-1.34,0.44-0.93,1.98-0.93,2.84
		c0.05,6.44,0.02,11.73-0.18,18.17c-0.08,2.64-0.34,4.02,0.25,5.84c0.2,0.62,0.55,1.49,1.4,1.91c0.97,0.48,3.04,0.59,4.89,0.6
		c0.03,0.98-0.03,1.43-0.01,2.84c0.01,0.56-0.13,0.65,0.26,0.94c0.13,0.1,0.37,0.24,0.94,0.31c0.61,0.07,1.86,0.09,3.03,0.1
		c0.02,0.91,0,1.39,0.06,2.77c0.02,0.43-0.16,0.65,0.11,0.95c0.09,0.1,0.25,0.24,0.65,0.31c0.67,0.12,2.46,0.1,3.37,0.1
		c4.26-0.01,8.38,0.06,12.62-0.01c0.3-0.01,0.61-0.01,0.87-0.04c0.65-0.07,0.84-0.41,0.83-0.55c-0.05-1.14,0.08-1.72,0.08-2.78
		c0-0.24,0-0.37-0.01-0.72l0-0.01c0.54,0,1.08,0,1.63-0.01c0.44-0.01,0.89-0.01,1.26-0.04c0.94-0.07,1.22-0.41,1.21-0.55
		c-0.07-1.14,0.11-1.72,0.11-2.78c0-0.24,0-0.37-0.01-0.72c0-0.02,0-0.04,0.01-0.07c0.93-0.03,1.86-0.06,2.8-0.11
		c0.65-0.03,1.33-0.07,1.89-0.25c1.4-0.46,1.82-2.53,1.8-3.43c-0.11-7.02,0.17-10.65,0.17-17.22
		C614.95,335.31,614.95,334.49,614.93,332.35z"/>
	<g>
		<path class="st9" d="M580.3,334.05c-0.01-1.12,0.01-2.02,0-3.14c0-0.13-0.01-0.5-0.02-0.61c-0.02-0.24-0.1-0.22-0.14-0.22
			c-0.35,0.01-0.49,0-0.98,0.02c-0.14,0.01-0.22-0.06-0.31,0.04c-0.03,0.03-0.08,0.1-0.1,0.25c-0.04,0.26-0.03,0.94-0.03,1.29
			c0,1.63-0.02,3.21,0,4.83c0,0.12,0,0.23,0.01,0.33c0.02,0.25,0.14,0.32,0.18,0.32c0.38-0.02,0.57,0.03,0.92,0.03
			c0.08,0,0.12,0,0.24,0c0.06,0,0.17,0.07,0.21-0.17c0.03-0.2,0.02-1.21,0.02-1.49C580.3,335.04,580.3,334.54,580.3,334.05z"/>
		<path class="st9" d="M583.37,334.05c-0.01-1.12,0.01-2.02,0-3.14c0-0.13-0.01-0.5-0.02-0.61c-0.02-0.24-0.1-0.22-0.14-0.22
			c-0.35,0.01-0.49,0-0.98,0.02c-0.14,0.01-0.22-0.06-0.31,0.04c-0.03,0.03-0.08,0.1-0.1,0.25c-0.04,0.26-0.03,0.94-0.03,1.29
			c0,1.63-0.02,3.21,0,4.83c0,0.12,0,0.23,0.01,0.33c0.02,0.25,0.14,0.32,0.18,0.32c0.38-0.02,0.57,0.03,0.92,0.03
			c0.08,0,0.12,0,0.24,0c0.06,0,0.17,0.07,0.21-0.17c0.03-0.2,0.02-1.21,0.02-1.49C583.37,335.04,583.38,334.54,583.37,334.05z"/>
		<path class="st9" d="M586.38,334.05c-0.01-1.12,0.01-2.02,0-3.14c0-0.13-0.01-0.5-0.02-0.61c-0.02-0.24-0.1-0.22-0.14-0.22
			c-0.35,0.01-0.49,0-0.98,0.02c-0.14,0.01-0.22-0.06-0.31,0.04c-0.03,0.03-0.08,0.1-0.1,0.25c-0.04,0.26-0.03,0.94-0.03,1.29
			c0,1.63-0.02,3.21,0,4.83c0,0.12,0,0.23,0.01,0.33c0.02,0.25,0.14,0.32,0.18,0.32c0.38-0.02,0.57,0.03,0.92,0.03
			c0.08,0,0.12,0,0.24,0c0.06,0,0.17,0.07,0.21-0.17c0.03-0.2,0.02-1.21,0.02-1.49C586.38,335.04,586.38,334.54,586.38,334.05z"/>
		<path class="st9" d="M589.45,334.05c-0.01-1.12,0.01-2.02,0-3.14c0-0.13-0.01-0.5-0.02-0.61c-0.02-0.24-0.1-0.22-0.14-0.22
			c-0.35,0.01-0.49,0-0.98,0.02c-0.14,0.01-0.22-0.06-0.31,0.04c-0.03,0.03-0.08,0.1-0.1,0.25c-0.04,0.26-0.03,0.94-0.03,1.29
			c0,1.63-0.02,3.21,0,4.83c0,0.12,0,0.23,0.01,0.33c0.02,0.25,0.14,0.32,0.18,0.32c0.38-0.02,0.57,0.03,0.92,0.03
			c0.08,0,0.12,0,0.24,0c0.06,0,0.17,0.07,0.21-0.17c0.03-0.2,0.02-1.21,0.02-1.49C589.45,335.04,589.45,334.54,589.45,334.05z"/>
		<path class="st9" d="M592.59,334.05c-0.01-1.12,0.01-2.02,0-3.14c0-0.13-0.01-0.5-0.02-0.61c-0.02-0.24-0.1-0.22-0.14-0.22
			c-0.35,0.01-0.49,0-0.98,0.02c-0.14,0.01-0.22-0.06-0.31,0.04c-0.03,0.03-0.08,0.1-0.1,0.25c-0.04,0.26-0.03,0.94-0.03,1.29
			c0,1.63-0.02,3.21,0,4.83c0,0.12,0,0.23,0.01,0.33c0.02,0.25,0.14,0.32,0.18,0.32c0.38-0.02,0.57,0.03,0.92,0.03
			c0.08,0,0.12,0,0.24,0c0.06,0,0.17,0.07,0.21-0.17c0.03-0.2,0.02-1.21,0.02-1.49C592.59,335.04,592.6,334.54,592.59,334.05z"/>
		<path class="st9" d="M595.67,334.05c-0.01-1.12,0.01-2.02,0-3.14c0-0.13-0.01-0.5-0.02-0.61c-0.02-0.24-0.1-0.22-0.14-0.22
			c-0.35,0.01-0.49,0-0.98,0.02c-0.14,0.01-0.22-0.06-0.31,0.04c-0.03,0.03-0.08,0.1-0.1,0.25c-0.04,0.26-0.03,0.94-0.03,1.29
			c0,1.63-0.02,3.21,0,4.83c0,0.12,0,0.23,0.01,0.33c0.02,0.25,0.14,0.32,0.18,0.32c0.38-0.02,0.57,0.03,0.92,0.03
			c0.08,0,0.12,0,0.24,0c0.06,0,0.17,0.07,0.21-0.17c0.03-0.2,0.02-1.21,0.02-1.49C595.67,335.04,595.67,334.54,595.67,334.05z"/>
		<path class="st9" d="M598.67,334.05c-0.01-1.12,0.01-2.02,0-3.14c0-0.13-0.01-0.5-0.02-0.61c-0.02-0.24-0.1-0.22-0.14-0.22
			c-0.35,0.01-0.49,0-0.98,0.02c-0.14,0.01-0.22-0.06-0.31,0.04c-0.03,0.03-0.08,0.1-0.1,0.25c-0.04,0.26-0.03,0.94-0.03,1.29
			c0,1.63-0.02,3.21,0,4.83c0,0.12,0,0.23,0.01,0.33c0.02,0.25,0.14,0.32,0.18,0.32c0.38-0.02,0.57,0.03,0.92,0.03
			c0.08,0,0.12,0,0.24,0c0.06,0,0.17,0.07,0.21-0.17c0.03-0.2,0.02-1.21,0.02-1.49C598.67,335.04,598.67,334.54,598.67,334.05z"/>
		<path class="st9" d="M601.74,334.05c-0.01-1.12,0.01-2.02,0-3.14c0-0.13-0.01-0.5-0.02-0.61c-0.02-0.24-0.1-0.22-0.14-0.22
			c-0.35,0.01-0.49,0-0.98,0.02c-0.14,0.01-0.22-0.06-0.31,0.04c-0.03,0.03-0.08,0.1-0.1,0.25c-0.04,0.26-0.03,0.94-0.03,1.29
			c0,1.63-0.02,3.21,0,4.83c0,0.12,0,0.23,0.01,0.33c0.02,0.25,0.14,0.32,0.18,0.32c0.38-0.02,0.57,0.03,0.92,0.03
			c0.08,0,0.12,0,0.24,0c0.06,0,0.17,0.07,0.21-0.17c0.03-0.2,0.02-1.21,0.02-1.49C601.74,335.04,601.75,334.54,601.74,334.05z"/>
		<path class="st9" d="M604.83,334.06c-0.01-1.12,0.01-2.02,0-3.14c0-0.13-0.01-0.5-0.02-0.61c-0.02-0.24-0.1-0.22-0.14-0.22
			c-0.35,0.01-0.49,0-0.98,0.02c-0.14,0.01-0.22-0.06-0.31,0.04c-0.03,0.03-0.08,0.1-0.1,0.25c-0.04,0.26-0.03,0.94-0.03,1.29
			c0,1.63-0.02,3.21,0,4.83c0,0.12,0,0.23,0.01,0.33c0.02,0.25,0.14,0.32,0.18,0.32c0.38-0.02,0.57,0.03,0.92,0.03
			c0.08,0,0.12,0,0.24,0c0.06,0,0.17,0.07,0.21-0.17c0.03-0.2,0.02-1.21,0.02-1.49C604.84,335.05,604.84,334.56,604.83,334.06z"/>
		<path class="st9" d="M607.91,334.06c-0.01-1.12,0.01-2.02,0-3.14c0-0.13-0.01-0.5-0.02-0.61c-0.02-0.24-0.1-0.22-0.14-0.22
			c-0.35,0.01-0.49,0-0.98,0.02c-0.14,0.01-0.22-0.06-0.31,0.04c-0.03,0.03-0.08,0.1-0.1,0.25c-0.04,0.26-0.03,0.94-0.03,1.29
			c0,1.63-0.02,3.21,0,4.83c0,0.12,0,0.23,0.01,0.33c0.02,0.25,0.14,0.32,0.18,0.32c0.38-0.02,0.57,0.03,0.92,0.03
			c0.08,0,0.12,0,0.24,0c0.06,0,0.17,0.07,0.21-0.17c0.03-0.2,0.02-1.21,0.02-1.49C607.91,335.05,607.91,334.56,607.91,334.06z"/>
		<path class="st9" d="M610.91,334.06c-0.01-1.12,0.01-2.02,0-3.14c0-0.13-0.01-0.5-0.02-0.61c-0.02-0.24-0.1-0.22-0.14-0.22
			c-0.35,0.01-0.49,0-0.98,0.02c-0.14,0.01-0.22-0.06-0.31,0.04c-0.03,0.03-0.08,0.1-0.1,0.25c-0.04,0.26-0.03,0.94-0.03,1.29
			c0,1.63-0.02,3.21,0,4.83c0,0.12,0,0.23,0.01,0.33c0.02,0.25,0.14,0.32,0.18,0.32c0.38-0.02,0.57,0.03,0.92,0.03
			c0.08,0,0.12,0,0.24,0c0.06,0,0.17,0.07,0.21-0.17c0.03-0.2,0.02-1.21,0.02-1.49C610.91,335.05,610.91,334.56,610.91,334.06z"/>
	</g>
</g>
<g>
	<path class="st10" d="M617.35,386.6c-0.01-1.48,0.46-4.53-1.08-5.64c-1.25-0.91-7.68-0.65-9.44-0.63c-3.16,0.05-6.31,0-9.47,0.07
		c-7.12,0.15-12.83-0.26-19.94-0.01c-0.85,0.03-3.17,0.28-3.89,0.58c-1.5,0.64-1.05,2.84-1.04,4.07c0.05,9.24,0.02,16.82-0.21,26.06
		c-0.09,3.78-0.38,5.77,0.28,8.38c0.22,0.88,0.61,2.13,1.57,2.74c1.63,1.04,5.99,0.87,8.19,0.84c10.37-0.13,20.4,0.53,30.72-0.12
		c0.73-0.05,1.49-0.1,2.12-0.36c1.57-0.66,2.04-3.64,2.02-4.92c-0.13-10.07,0.19-15.28,0.19-24.7
		C617.37,390.84,617.36,389.67,617.35,386.6z"/>
	<path class="st11" d="M614.93,386.89c-0.01-1.03,0.41-3.16-0.96-3.93c-1.12-0.63-6.85-0.46-8.42-0.44c-2.81,0.03-5.63,0-8.44,0.05
		c-6.35,0.11-11.43-0.18-17.78-0.01c-0.76,0.02-2.82,0.19-3.47,0.41c-1.34,0.44-0.93,1.98-0.93,2.84
		c0.05,6.44,0.02,11.73-0.18,18.17c-0.08,2.64-0.34,4.02,0.25,5.84c0.2,0.62,0.55,1.49,1.4,1.91c0.97,0.48,3.04,0.59,4.89,0.6
		c0.03,0.98-0.03,1.43-0.01,2.84c0.01,0.56-0.13,0.65,0.26,0.94c0.13,0.1,0.37,0.24,0.94,0.31c0.61,0.07,1.86,0.09,3.03,0.1
		c0.02,0.91,0,1.39,0.06,2.77c0.02,0.43-0.16,0.65,0.11,0.95c0.09,0.1,0.25,0.24,0.65,0.31c0.67,0.12,2.46,0.1,3.37,0.1
		c4.26-0.01,8.38,0.06,12.62-0.01c0.3-0.01,0.61-0.01,0.87-0.04c0.65-0.07,0.84-0.41,0.83-0.55c-0.05-1.14,0.08-1.72,0.08-2.78
		c0-0.24,0-0.37-0.01-0.72l0-0.01c0.54,0,1.08,0,1.63-0.01c0.44-0.01,0.89-0.01,1.26-0.04c0.94-0.07,1.22-0.41,1.21-0.55
		c-0.07-1.13,0.11-1.72,0.11-2.78c0-0.24,0-0.37-0.01-0.72c0-0.02,0-0.04,0.01-0.07c0.93-0.03,1.86-0.06,2.8-0.11
		c0.65-0.03,1.33-0.07,1.89-0.25c1.4-0.46,1.82-2.53,1.8-3.43c-0.11-7.02,0.17-10.65,0.17-17.22
		C614.95,389.85,614.95,389.03,614.93,386.89z"/>
	<g>
		<path class="st9" d="M580.3,388.59c-0.01-1.12,0.01-2.02,0-3.14c0-0.13-0.01-0.5-0.02-0.61c-0.02-0.24-0.1-0.22-0.14-0.22
			c-0.35,0.01-0.49,0-0.98,0.02c-0.14,0.01-0.22-0.06-0.31,0.04c-0.03,0.03-0.08,0.1-0.1,0.25c-0.04,0.26-0.03,0.94-0.03,1.29
			c0,1.63-0.02,3.21,0,4.83c0,0.12,0,0.23,0.01,0.33c0.02,0.25,0.14,0.32,0.18,0.32c0.38-0.02,0.57,0.03,0.92,0.03
			c0.08,0,0.12,0,0.24,0c0.06,0,0.17,0.07,0.21-0.17c0.03-0.2,0.02-1.21,0.02-1.49C580.3,389.58,580.3,389.08,580.3,388.59z"/>
		<path class="st9" d="M583.37,388.59c-0.01-1.12,0.01-2.02,0-3.14c0-0.13-0.01-0.5-0.02-0.61c-0.02-0.24-0.1-0.22-0.14-0.22
			c-0.35,0.01-0.49,0-0.98,0.02c-0.14,0.01-0.22-0.06-0.31,0.04c-0.03,0.03-0.08,0.1-0.1,0.25c-0.04,0.26-0.03,0.94-0.03,1.29
			c0,1.63-0.02,3.21,0,4.83c0,0.12,0,0.23,0.01,0.33c0.02,0.25,0.14,0.32,0.18,0.32c0.38-0.02,0.57,0.03,0.92,0.03
			c0.08,0,0.12,0,0.24,0c0.06,0,0.17,0.07,0.21-0.17c0.03-0.2,0.02-1.21,0.02-1.49C583.37,389.58,583.38,389.08,583.37,388.59z"/>
		<path class="st9" d="M586.38,388.59c-0.01-1.12,0.01-2.02,0-3.14c0-0.13-0.01-0.5-0.02-0.61c-0.02-0.24-0.1-0.22-0.14-0.22
			c-0.35,0.01-0.49,0-0.98,0.02c-0.14,0.01-0.22-0.06-0.31,0.04c-0.03,0.03-0.08,0.1-0.1,0.25c-0.04,0.26-0.03,0.94-0.03,1.29
			c0,1.63-0.02,3.21,0,4.83c0,0.12,0,0.23,0.01,0.33c0.02,0.25,0.14,0.32,0.18,0.32c0.38-0.02,0.57,0.03,0.92,0.03
			c0.08,0,0.12,0,0.24,0c0.06,0,0.17,0.07,0.21-0.17c0.03-0.2,0.02-1.21,0.02-1.49C586.38,389.58,586.38,389.08,586.38,388.59z"/>
		<path class="st9" d="M589.45,388.59c-0.01-1.12,0.01-2.02,0-3.14c0-0.13-0.01-0.5-0.02-0.61c-0.02-0.24-0.1-0.22-0.14-0.22
			c-0.35,0.01-0.49,0-0.98,0.02c-0.14,0.01-0.22-0.06-0.31,0.04c-0.03,0.03-0.08,0.1-0.1,0.25c-0.04,0.26-0.03,0.94-0.03,1.29
			c0,1.63-0.02,3.21,0,4.83c0,0.12,0,0.23,0.01,0.33c0.02,0.25,0.14,0.32,0.18,0.32c0.38-0.02,0.57,0.03,0.92,0.03
			c0.08,0,0.12,0,0.24,0c0.06,0,0.17,0.07,0.21-0.17c0.03-0.2,0.02-1.21,0.02-1.49C589.45,389.58,589.45,389.08,589.45,388.59z"/>
		<path class="st9" d="M592.59,388.59c-0.01-1.12,0.01-2.02,0-3.14c0-0.13-0.01-0.5-0.02-0.61c-0.02-0.24-0.1-0.22-0.14-0.22
			c-0.35,0.01-0.49,0-0.98,0.02c-0.14,0.01-0.22-0.06-0.31,0.04c-0.03,0.03-0.08,0.1-0.1,0.25c-0.04,0.26-0.03,0.94-0.03,1.29
			c0,1.63-0.02,3.21,0,4.83c0,0.12,0,0.23,0.01,0.33c0.02,0.25,0.14,0.32,0.18,0.32c0.38-0.02,0.57,0.03,0.92,0.03
			c0.08,0,0.12,0,0.24,0c0.06,0,0.17,0.07,0.21-0.17c0.03-0.2,0.02-1.21,0.02-1.49C592.59,389.58,592.6,389.08,592.59,388.59z"/>
		<path class="st9" d="M595.67,388.59c-0.01-1.12,0.01-2.02,0-3.14c0-0.13-0.01-0.5-0.02-0.61c-0.02-0.24-0.1-0.22-0.14-0.22
			c-0.35,0.01-0.49,0-0.98,0.02c-0.14,0.01-0.22-0.06-0.31,0.04c-0.03,0.03-0.08,0.1-0.1,0.25c-0.04,0.26-0.03,0.94-0.03,1.29
			c0,1.63-0.02,3.21,0,4.83c0,0.12,0,0.23,0.01,0.33c0.02,0.25,0.14,0.32,0.18,0.32c0.38-0.02,0.57,0.03,0.92,0.03
			c0.08,0,0.12,0,0.24,0c0.06,0,0.17,0.07,0.21-0.17c0.03-0.2,0.02-1.21,0.02-1.49C595.67,389.58,595.67,389.08,595.67,388.59z"/>
		<path class="st9" d="M598.67,388.59c-0.01-1.12,0.01-2.02,0-3.14c0-0.13-0.01-0.5-0.02-0.61c-0.02-0.24-0.1-0.22-0.14-0.22
			c-0.35,0.01-0.49,0-0.98,0.02c-0.14,0.01-0.22-0.06-0.31,0.04c-0.03,0.03-0.08,0.1-0.1,0.25c-0.04,0.26-0.03,0.94-0.03,1.29
			c0,1.63-0.02,3.21,0,4.83c0,0.12,0,0.23,0.01,0.33c0.02,0.25,0.14,0.32,0.18,0.32c0.38-0.02,0.57,0.03,0.92,0.03
			c0.08,0,0.12,0,0.24,0c0.06,0,0.17,0.07,0.21-0.17c0.03-0.2,0.02-1.21,0.02-1.49C598.67,389.58,598.67,389.08,598.67,388.59z"/>
		<path class="st9" d="M601.74,388.59c-0.01-1.12,0.01-2.02,0-3.14c0-0.13-0.01-0.5-0.02-0.61c-0.02-0.24-0.1-0.22-0.14-0.22
			c-0.35,0.01-0.49,0-0.98,0.02c-0.14,0.01-0.22-0.06-0.31,0.04c-0.03,0.03-0.08,0.1-0.1,0.25c-0.04,0.26-0.03,0.94-0.03,1.29
			c0,1.63-0.02,3.21,0,4.83c0,0.12,0,0.23,0.01,0.33c0.02,0.25,0.14,0.32,0.18,0.32c0.38-0.02,0.57,0.03,0.92,0.03
			c0.08,0,0.12,0,0.24,0c0.06,0,0.17,0.07,0.21-0.17c0.03-0.2,0.02-1.21,0.02-1.49C601.74,389.58,601.75,389.08,601.74,388.59z"/>
		<path class="st9" d="M604.83,388.6c-0.01-1.12,0.01-2.02,0-3.14c0-0.13-0.01-0.5-0.02-0.61c-0.02-0.24-0.1-0.22-0.14-0.22
			c-0.35,0.01-0.49,0-0.98,0.02c-0.14,0.01-0.22-0.06-0.31,0.04c-0.03,0.03-0.08,0.1-0.1,0.25c-0.04,0.26-0.03,0.94-0.03,1.29
			c0,1.63-0.02,3.21,0,4.83c0,0.12,0,0.23,0.01,0.33c0.02,0.25,0.14,0.32,0.18,0.32c0.38-0.02,0.57,0.03,0.92,0.03
			c0.08,0,0.12,0,0.24,0c0.06,0,0.17,0.07,0.21-0.17c0.03-0.2,0.02-1.21,0.02-1.49C604.84,389.59,604.84,389.1,604.83,388.6z"/>
		<path class="st9" d="M607.91,388.6c-0.01-1.12,0.01-2.02,0-3.14c0-0.13-0.01-0.5-0.02-0.61c-0.02-0.24-0.1-0.22-0.14-0.22
			c-0.35,0.01-0.49,0-0.98,0.02c-0.14,0.01-0.22-0.06-0.31,0.04c-0.03,0.03-0.08,0.1-0.1,0.25c-0.04,0.26-0.03,0.94-0.03,1.29
			c0,1.63-0.02,3.21,0,4.83c0,0.12,0,0.23,0.01,0.33c0.02,0.25,0.14,0.32,0.18,0.32c0.38-0.02,0.57,0.03,0.92,0.03
			c0.08,0,0.12,0,0.24,0c0.06,0,0.17,0.07,0.21-0.17c0.03-0.2,0.02-1.21,0.02-1.49C607.91,389.59,607.91,389.1,607.91,388.6z"/>
		<path class="st9" d="M610.91,388.6c-0.01-1.12,0.01-2.02,0-3.14c0-0.13-0.01-0.5-0.02-0.61c-0.02-0.24-0.1-0.22-0.14-0.22
			c-0.35,0.01-0.49,0-0.98,0.02c-0.14,0.01-0.22-0.06-0.31,0.04c-0.03,0.03-0.08,0.1-0.1,0.25c-0.04,0.26-0.03,0.94-0.03,1.29
			c0,1.63-0.02,3.21,0,4.83c0,0.12,0,0.23,0.01,0.33c0.02,0.25,0.14,0.32,0.18,0.32c0.38-0.02,0.57,0.03,0.92,0.03
			c0.08,0,0.12,0,0.24,0c0.06,0,0.17,0.07,0.21-0.17c0.03-0.2,0.02-1.21,0.02-1.49C610.91,389.59,610.91,389.1,610.91,388.6z"/>
	</g>
</g>
<g>
	<path class="st10" d="M617.35,442.69c-0.01-1.48,0.46-4.53-1.08-5.64c-1.25-0.91-7.68-0.65-9.44-0.63c-3.16,0.05-6.31,0-9.47,0.07
		c-7.12,0.15-12.83-0.26-19.94-0.01c-0.85,0.03-3.17,0.28-3.89,0.58c-1.5,0.64-1.05,2.84-1.04,4.07c0.05,9.24,0.02,16.82-0.21,26.06
		c-0.09,3.78-0.38,5.77,0.28,8.38c0.22,0.88,0.61,2.13,1.57,2.74c1.63,1.04,5.99,0.87,8.19,0.84c10.37-0.13,20.4,0.53,30.72-0.12
		c0.73-0.05,1.49-0.1,2.12-0.36c1.57-0.66,2.04-3.64,2.02-4.92c-0.13-10.07,0.19-15.28,0.19-24.7
		C617.37,446.94,617.36,445.77,617.35,442.69z"/>
	<path class="st11" d="M614.93,442.99c-0.01-1.03,0.41-3.16-0.96-3.93c-1.12-0.63-6.85-0.45-8.42-0.44c-2.81,0.03-5.63,0-8.44,0.05
		c-6.35,0.11-11.43-0.18-17.78-0.01c-0.76,0.02-2.82,0.19-3.47,0.41c-1.34,0.44-0.93,1.98-0.93,2.84
		c0.05,6.44,0.02,11.73-0.18,18.17c-0.08,2.64-0.34,4.02,0.25,5.84c0.2,0.62,0.55,1.49,1.4,1.91c0.97,0.48,3.04,0.59,4.89,0.6
		c0.03,0.98-0.03,1.43-0.01,2.84c0.01,0.56-0.13,0.65,0.26,0.94c0.13,0.1,0.37,0.24,0.94,0.31c0.61,0.07,1.86,0.09,3.03,0.1
		c0.02,0.91,0,1.39,0.06,2.77c0.02,0.43-0.16,0.65,0.11,0.95c0.09,0.1,0.25,0.24,0.65,0.31c0.67,0.12,2.46,0.1,3.37,0.1
		c4.26-0.01,8.38,0.06,12.62-0.01c0.3-0.01,0.61-0.01,0.87-0.04c0.65-0.07,0.84-0.41,0.83-0.55c-0.05-1.14,0.08-1.72,0.08-2.78
		c0-0.24,0-0.37-0.01-0.72l0-0.01c0.54,0,1.08,0,1.63-0.01c0.44-0.01,0.89-0.01,1.26-0.04c0.94-0.07,1.22-0.41,1.21-0.55
		c-0.07-1.14,0.11-1.72,0.11-2.78c0-0.24,0-0.37-0.01-0.72c0-0.02,0-0.04,0.01-0.07c0.93-0.03,1.86-0.06,2.8-0.11
		c0.65-0.03,1.33-0.07,1.89-0.25c1.4-0.46,1.82-2.53,1.8-3.43c-0.11-7.02,0.17-10.65,0.17-17.22
		C614.95,445.95,614.95,445.13,614.93,442.99z"/>
</g>
<path class="st12" d="M634.17,557.32c4.55,0,13.9,0.2,17.29-0.48c2.78-0.56,2-3.45,1.92-4.24c-0.14-1.42,0-2.84-0.2-4.26
	c-0.46-3.2,0.81-5.76,0.02-8.96c-0.09-0.38-0.84-1.42-1.79-1.75c-1.95-0.67-8.72-0.47-12.48-0.47c-28.34,0.02-51.58,0.01-79.92-0.09
	c-11.6-0.04-17.7-0.17-25.7,0.12c-2.71,0.1-6.54,0.28-8.4,0.71c-3.18,0.73-2.67,2.69-2.59,3.68c0.39,4.66-1.64,9.16,0.36,13.8
	c0.14,0.33,0.3,0.67,1.11,0.95c2.04,0.71,11.15,0.92,15.09,0.91c30.87-0.06,46.84,0.09,75.72,0.09
	C621.16,557.33,624.75,557.33,634.17,557.32z"/>
<path class="st13" d="M396.02,468.03c1.42-0.93,2.83-2.18,3.1-3.86c0.29-1.83-0.93-3.65-2.54-4.57c-1.61-0.92-3.53-1.12-5.38-1.17
	c-3.43-0.1-6.87,0.25-10.21,1.01c-6.06,1.39-12.12,8-3.6,10.99C383.47,472.55,390.65,471.53,396.02,468.03z"/>
<path class="st14" d="M555.2,173.36c-0.41,0.3-0.75,0.69-1.01,1.12c-0.9,1.5-0.8,3.56,0.31,4.92c1.11,1.36,3.16,1.87,4.74,1.13
	c1.58-0.74,2.49-2.54,2.51-4.28c0-0.48-0.05-0.96-0.22-1.41C560.68,172.61,556.98,172.07,555.2,173.36z"/>
<path class="st14" d="M555.2,231.22c-0.41,0.3-0.75,0.69-1.01,1.12c-0.9,1.5-0.8,3.56,0.31,4.92c1.11,1.36,3.16,1.87,4.74,1.13
	c1.58-0.74,2.49-2.54,2.51-4.28c0-0.48-0.05-0.96-0.22-1.41C560.68,230.47,556.98,229.94,555.2,231.22z"/>
<path class="st14" d="M555.2,286.14c-0.41,0.3-0.75,0.69-1.01,1.12c-0.9,1.5-0.8,3.56,0.31,4.92c1.11,1.36,3.16,1.87,4.74,1.13
	c1.58-0.74,2.49-2.54,2.51-4.28c0-0.48-0.05-0.96-0.22-1.41C560.68,285.4,556.98,284.86,555.2,286.14z"/>
<path class="st14" d="M555.2,342.44c-0.41,0.3-0.75,0.69-1.01,1.12c-0.9,1.5-0.8,3.56,0.31,4.92c1.11,1.36,3.16,1.87,4.74,1.13
	c1.58-0.74,2.49-2.54,2.51-4.28c0-0.48-0.05-0.96-0.22-1.41C560.68,341.69,556.98,341.16,555.2,342.44z"/>
<path class="st14" d="M555.2,396.5c-0.41,0.3-0.75,0.69-1.01,1.12c-0.9,1.5-0.8,3.56,0.31,4.92c1.11,1.36,3.16,1.87,4.74,1.13
	c1.58-0.74,2.49-2.54,2.51-4.28c0-0.48-0.05-0.96-0.22-1.41C560.68,395.76,556.98,395.22,555.2,396.5z"/>
<path class="st15" d="M555.2,452.77c-0.41,0.3-0.75,0.69-1.01,1.12c-0.9,1.5-0.8,3.56,0.31,4.92c1.11,1.36,3.16,1.87,4.74,1.13
	c1.58-0.74,2.49-2.54,2.51-4.28c0-0.48-0.05-0.96-0.22-1.41C560.68,452.02,556.98,451.48,555.2,452.77z"/>
<path class="st16" d="M676.91,791.55c-14.4-29.52-47.47-47.38-76.86-58.55c-31.36-11.91-64.64-17.4-97.17-25.05
	c-27.78-6.54-67.81-14.4-76.77-46.37c-9.59-34.2,33.49-43.6,57.81-47.65c34.79-5.8,70.47-8.85,98.84-32.05
	c11.91-9.74,21.26-23.19,24.74-38.31c4.33-18.83,2.03-39.61,0.21-58.65c-0.98-10.17-2.26-20.32-3.72-30.43
	c-1.5-10.44-19.89-8.08-18.58,2.52c2.37,19.2,3.96,38.55,4.58,57.89c0.51,15.87-0.85,31.22-11.49,43.79
	c-21.45,25.35-56.46,29.77-87.29,34.36c-30.07,4.48-69.94,10.31-82.9,42.55c-5.99,14.9-2.91,32.05,4.99,45.65
	c8.28,14.25,22,24.41,36.86,31.02c30.35,13.5,64.34,17.86,96.51,25.22c31.08,7.11,62.28,16.17,88.53,34.94
	c11.66,8.33,23.2,19.59,27.78,33.54c5.13,15.64-0.26,32.61-6.87,47.02c-6.65,14.5-15.89,27.77-28.55,37.65
	c-12.78,9.98-28.06,16.39-43.38,21.34c-71.22,23.01-147.69,20.55-222.01,18.86c-9.42-0.21-18.85-2.25-28.28-2.34
	c-5.34-0.05-5.05,15.77,0,16.35c76.49,8.78,155.9,8.74,231.08-9.33c32.98-7.93,67.76-19.56,90.02-46.68
	C676.18,863.02,692.61,823.73,676.91,791.55z"/>
<g>
	<path class="st17" d="M316.69,607.03c3.47,8.68,7.14,17.28,9.91,26.23c8.19,26.51,8.08,55.13,5.11,82.87
		c-2.97,27.74-8.71,55.12-11.54,82.88c-5.32,1.07-10.83,1.15-16.17,0.24c0.12-35.52-0.15-71.04-0.8-106.55
		c-0.05-2.67-0.11-5.37-0.79-7.94c-0.74-2.78-2.19-5.28-3.62-7.74c-18.01-31.01-36.03-62.03-54.04-93.04
		c-4.63-7.97-9.3-16.04-11.9-24.97c-2.6-8.93-2.95-18.95,0.96-27.38c6.01-12.98,21.56-19.38,34.98-16.32
		c15.47,3.53,25.46,15.17,28.24,30.75C300.76,567,308.87,587.44,316.69,607.03z"/>
	<path class="st17" d="M184.5,767.78c-6.7-0.45-13.18-3.09-18.1-7.36c13.23-18.9,18.95-39.8,32.19-58.7
		c4.19-5.98,8.39-11.99,11.43-18.54c3.74-8.06,5.63-16.73,7.5-25.33c7.24-33.35,3.03-73.82,10.27-107.17
		c0.61-2.8,1.25-5.68,2.99-8.03c4.99-6.75,34.63,3.31,43.12,4.99c1.86,0.37,3.88,0.83,5.04,2.24c1.32,1.62,4.56-2.28,4.36-0.23
		c-1.66,16.85,1.23,9.51-3.05,36.04c-1.5,9.33-16.43,68.46-20.09,77.27c-6.47,15.56-14.83,31.55-26.56,44.12
		C215.54,726.42,203.09,744.5,184.5,767.78z"/>
	<g>
		<path class="st18" d="M190.65,766.74c2.23,2.86-1.52,7.56,0.66,10.33c3.55,4.5,11.46,2.63,14.93,7.2c1.12,1.48,1.56,3.4,1.76,5.28
			c0.34,3.24,0.06,6.56-0.82,9.7c-0.17,0.62-0.38,1.25-0.79,1.73c-0.38,0.45-0.89,0.74-1.41,0.97c-3.12,1.4-6.72,1.05-9.86-0.19
			c-3.14-1.24-5.9-3.29-8.62-5.32c-9.34-6.97-18.69-13.94-28.03-20.9c-0.44-0.33-0.9-0.69-1.11-1.21c-0.22-0.56-0.1-1.19,0.04-1.78
			c1.01-4.22,3.23-8,5.43-11.71c1.79-3.03,3.59-6.05,5.52-8.99C168.34,751.86,183.4,757.43,190.65,766.74z"/>
	</g>
	<g>
		<path class="st18" d="M326.37,798.48c2.92,0.59,2.1,5.75,4.56,7.21c2.07,1.24,4.55,1.39,6.94,1.52c3.06,0.16,6.13,0.32,9.19,0.48
			c2.11,0.11,4.41,0.3,5.96,1.81c1.73,1.69,1.94,4.45,2.04,6.94c0.1,2.59,0.14,5.41-1.33,7.49c-2,2.83-5.86,3.11-9.21,3.09
			c-11.84-0.07-29.6-0.78-41.4-1.75c-1.39-0.11-2.99-0.36-3.72-1.61c-0.47-0.81-0.44-1.82-0.39-2.77l1.09-21.71
			C300.1,799.18,316.72,796.52,326.37,798.48z"/>
	</g>
	<path class="st19" d="M283.96,419.07c7.7,1.89,14.26,6.91,19.86,12.52c5.6,5.61,10.47,11.93,16.27,17.33
		c2.46,2.29,5.22,4.48,8.51,5.14c2.63,0.52,5.34,0.02,7.98-0.49c12.06-2.32,24.11-4.64,36.17-6.95c5.16-0.99,10.44-1.99,15.64-1.26
		c0.34,3.94,0.69,7.87,1.03,11.81c0.04,0.46,0.07,0.96-0.19,1.34c-0.27,0.4-0.78,0.56-1.25,0.69c-15.38,4.17-30.75,8.34-46.13,12.5
		c-8.66,2.35-17.37,4.7-26.31,5.53c-1.79,0.16-3.63,0.26-5.33-0.32c-1.53-0.52-2.83-1.56-4.07-2.59
		c-13.51-11.23-24.99-24.66-36.39-38.03c-1.79-2.1-3.66-4.35-4.1-7.08C264.33,420.94,278.14,417.64,283.96,419.07z"/>
	<g>
		<path class="st5" d="M452.14,439.66c9.4-2.32,18.68-5.17,27.76-8.52c0.61-0.22,1.25-0.48,1.61-1.02c0.22-0.33,0.3-0.74,0.32-1.14
			c0.04-0.87-0.19-1.72-0.41-2.56c-1.07-4-2.14-8.01-3.55-11.9c-0.23-0.63-0.47-1.27-0.93-1.76c-0.67-0.72-1.71-1-2.69-0.96
			c-0.98,0.03-1.93,0.35-2.86,0.66c-6.3,2.09-12.61,4.18-18.91,6.27c-3.11,1.03-6.24,2.07-9.19,3.51c-0.23,0.11-0.46,0.23-0.61,0.44
			c-0.13,0.17-0.18,0.38-0.22,0.59c-0.24,1.26-0.05,2.56,0.16,3.82c0.44,2.64,0.95,5.27,1.56,7.88c0.29,1.25,0.6,2.52,1.22,3.65
			c0.48,0.88,1.64,2.5,2.79,2.47c0.51-0.01,1.2-0.58,1.69-0.76C450.61,440.03,451.38,439.85,452.14,439.66z"/>
		<path class="st9" d="M468.66,417.11c2.07-0.7,3.73-1.24,5.79-1.94c0.25-0.08,0.92-0.32,1.12-0.4c0.43-0.17,0.38-0.22,0.36-0.26
			c-0.11-0.29-0.14-0.42-0.32-0.82c-0.05-0.12,0.05-0.22-0.17-0.24c-0.07-0.01-0.2-0.01-0.49,0.07c-0.48,0.13-1.75,0.56-2.39,0.77
			c-3.01,1.01-5.93,1.97-8.92,2.99c-0.21,0.07-0.43,0.15-0.61,0.22c-0.45,0.17-0.55,0.31-0.54,0.35c0.14,0.31,0.11,0.5,0.21,0.8
			c0.02,0.07,0.04,0.1,0.07,0.2c0.02,0.05-0.08,0.19,0.37,0.07c0.37-0.09,2.24-0.73,2.75-0.9
			C466.83,417.73,467.75,417.42,468.66,417.11z"/>
		<path class="st9" d="M469.54,419.72c2.07-0.7,3.73-1.24,5.79-1.94c0.25-0.08,0.92-0.32,1.12-0.4c0.43-0.17,0.38-0.22,0.36-0.26
			c-0.11-0.29-0.14-0.42-0.32-0.82c-0.05-0.12,0.05-0.22-0.17-0.24c-0.07-0.01-0.2-0.01-0.49,0.07c-0.48,0.13-1.75,0.56-2.39,0.77
			c-3.01,1.01-5.93,1.97-8.92,2.99c-0.21,0.07-0.43,0.15-0.61,0.22c-0.45,0.17-0.55,0.31-0.54,0.35c0.14,0.31,0.11,0.5,0.21,0.8
			c0.02,0.07,0.04,0.1,0.07,0.2c0.02,0.05-0.08,0.19,0.37,0.07c0.37-0.09,2.24-0.73,2.75-0.9
			C467.7,420.33,468.62,420.03,469.54,419.72z"/>
		<path class="st9" d="M470.39,422.26c2.07-0.7,3.73-1.24,5.79-1.94c0.25-0.08,0.92-0.32,1.12-0.4c0.43-0.17,0.38-0.22,0.36-0.26
			c-0.11-0.29-0.14-0.42-0.32-0.82c-0.05-0.12,0.05-0.22-0.17-0.24c-0.07-0.01-0.2-0.01-0.49,0.07c-0.48,0.13-1.75,0.56-2.39,0.77
			c-3.01,1.01-5.93,1.97-8.92,2.99c-0.21,0.07-0.43,0.15-0.61,0.22c-0.45,0.17-0.55,0.31-0.54,0.35c0.14,0.31,0.11,0.5,0.21,0.8
			c0.02,0.07,0.04,0.1,0.07,0.2c0.02,0.05-0.08,0.19,0.37,0.07c0.37-0.09,2.24-0.73,2.75-0.9
			C468.55,422.88,469.47,422.57,470.39,422.26z"/>
		<path class="st9" d="M471.26,424.86c2.07-0.7,3.73-1.24,5.79-1.94c0.25-0.08,0.92-0.32,1.12-0.4c0.43-0.17,0.38-0.22,0.36-0.26
			c-0.11-0.29-0.14-0.42-0.32-0.82c-0.05-0.12,0.05-0.22-0.17-0.24c-0.07-0.01-0.2-0.01-0.49,0.07c-0.48,0.13-1.75,0.56-2.39,0.77
			c-3.01,1.01-5.93,1.97-8.92,2.99c-0.21,0.07-0.43,0.15-0.61,0.22c-0.45,0.17-0.55,0.31-0.54,0.35c0.14,0.31,0.11,0.5,0.21,0.8
			c0.02,0.07,0.04,0.1,0.07,0.2c0.02,0.05-0.08,0.19,0.37,0.07c0.37-0.09,2.24-0.73,2.75-0.9
			C469.43,425.48,470.35,425.17,471.26,424.86z"/>
	</g>
	<path class="st20" d="M279.41,411.66c5.17-0.14,11.35,0.2,13.99,4.64c0.98,1.64,1.26,3.59,1.53,5.49
		c1.15,8.12,2.3,16.25,2.74,24.44c0.55,10.3-0.03,20.63,0.48,30.93c1.15,23,7.74,45.31,13.32,67.65c1.7,6.81,3.32,13.84,2.29,20.78
		c-0.17,1.12-0.42,2.26-1.05,3.2c-0.76,1.13-1.99,1.85-3.18,2.51c-25.73,14.23-56.03,20.02-85.19,16.3
		c-3.55-0.45-7.24-1.11-10.06-3.31c-3.2-2.49-4.73-6.53-5.88-10.42c-6-20.29-5.62-42.04-1.96-62.88c3.66-20.84,10.5-40.97,17.31-61
		c3.97-11.67,7.94-23.34,11.91-35.02c3.98-11.71,7.31-12.03,17.51-7.22C261.36,411.61,270.52,411.9,279.41,411.66z"/>
	<g>
		<path class="st13" d="M252.66,395.91c3.49,4.34,8.67,6.89,13.68,9.31c4.09,1.98,8.45,4.01,12.97,3.55
			c7.86-0.79,12.91-8.48,16.78-15.36c5.82-10.33,11.79-21.23,11.93-33.08c0.12-10.76-4.96-21.46-13.39-28.16
			c-8.42-6.7-19.99-9.24-30.45-6.7c-12.57,3.06-27.14,11.87-24,26.44c1.42,6.6,3.84,12.84,5,19.53
			C246.61,379.62,247.25,389.18,252.66,395.91z"/>
		<path class="st16" d="M427.91,430.71c-34.71,6.79-69.3,18.03-99.32,37.08c-14.76,9.36-28.64,20.56-40.3,33.61
			c-12.63,14.13-17.99,28.24-27.51,44.5c-19.13,32.67-35.65,62.86-66.19,90.63c-29.57,26.89-68.25,43.76-107.05,51.52
			c-11.48,2.3-7.76,18.16,3.67,15.99c75.6-14.36,135.13-69.12,176.55-131.46c10.68-16.08,19.03-33.61,29.99-49.5
			c9.86-14.29,22.35-26.96,36.31-37.27c28.84-21.31,62.93-33.87,97.94-40.42C446.91,442.6,442.83,427.79,427.91,430.71z"/>
	</g>
	<g>
		<path class="st5" d="M463.1,436.81c-0.43-4.49-3.47-8.29-4.67-12.64c-0.91-3.33-1.1-7.5-4.15-9.12c-2.23-1.18-4.94-0.35-7.33,0.46
			c-3.85,1.3-7.75,2.48-11.68,3.53c-15.09,4.04-30.7,6.25-45.35,11.68c0.37,1.07,0.74,2.14,1.11,3.21c-3.35,0.89-6.68,1.89-9.94,3.1
			c0.17,0.48,0.33,0.96,0.49,1.44c-1.27,0.46-2.52,0.94-3.75,1.49c-2.56,1.13-5.31,2.86-5.72,5.63c-0.24,1.6,0.38,3.19,0.99,4.69
			c2,4.94,3.19,14.3,9.96,11.41c1.74-0.74,3.67-1.62,5.68-2.47c0.15,0.44,0.3,0.88,0.45,1.31c0.1,0.3,0.23,0.63,0.5,0.8
			c0.29,0.18,0.67,0.13,1,0.06c3.05-0.57,6.03-1.41,8.99-2.36c0.14,0.42,0.29,0.84,0.43,1.26c0.13,0.38,0.29,0.79,0.63,1.01
			c0.37,0.23,0.84,0.16,1.26,0.08c11.3-2.12,21.87-7,32.83-10.47c8.19-2.59,16.67-4.4,24.51-7.92c0.96-0.43,1.94-0.91,2.63-1.7
			C463.02,440.09,463.25,438.38,463.1,436.81z"/>
		<g>
			<path class="st21" d="M402.27,443.07c0.93-0.47,1.89-1.14,2.23-2.22c0.29-0.91,0.08-1.92-0.16-2.84
				c-0.9-3.45-2.21-6.76-3.89-9.82c-0.14-0.25-0.29-0.51-0.51-0.66c-0.27-0.18-0.61-0.17-0.93-0.11c-1.09,0.18-2.23,0.76-3.13,1.46
				c-0.95,0.74-0.74,1.22-0.28,2.43c1.4,3.64,2.8,7.27,4.2,10.91c0.13,0.34,0.27,0.7,0.53,0.93
				C400.86,443.63,401.65,443.39,402.27,443.07z"/>
			<path class="st21" d="M408.12,440.38c0.06,0.18,0.13,0.36,0.25,0.49c0.24,0.24,0.6,0.21,0.91,0.16c0.81-0.13,1.64-0.32,2.34-0.79
				c0.71-0.47,1.28-1.27,1.34-2.2c0.05-0.72-0.22-1.42-0.48-2.08c-1.26-3.18-2.52-6.36-3.77-9.54c-0.19-0.48-0.41-1-0.82-1.25
				c-0.86-0.52-3.06,0.48-3.75,1.14c-1.04,1.01-0.01,2.63,0.4,3.8C405.74,433.55,406.9,436.98,408.12,440.38z"/>
			<path class="st21" d="M417.16,437.59c0.06,0.18,0.12,0.36,0.24,0.49c0.23,0.25,0.61,0.23,0.93,0.2c0.84-0.09,1.7-0.23,2.44-0.65
				s1.38-1.17,1.48-2.06c0.08-0.7-0.16-1.39-0.4-2.04c-1.15-3.14-2.3-6.28-3.45-9.42c-0.17-0.48-0.38-0.99-0.79-1.25
				c-0.86-0.54-3.17,0.31-3.91,0.93c-1.12,0.93-0.13,2.55,0.24,3.71C415.01,430.85,416.06,434.23,417.16,437.59z"/>
			<path class="st21" d="M425.32,434.75c0.05,0.16,0.1,0.33,0.22,0.45c0.21,0.23,0.55,0.22,0.85,0.18c0.77-0.08,1.54-0.21,2.22-0.6
				c0.68-0.39,1.25-1.08,1.35-1.9c0.07-0.64-0.15-1.28-0.37-1.88c-1.04-2.89-2.09-5.79-3.13-8.68c-0.16-0.44-0.34-0.91-0.72-1.15
				c-0.79-0.5-2.89,0.29-3.56,0.86c-1.02,0.86-0.12,2.35,0.22,3.42C423.37,428.54,424.32,431.66,425.32,434.75z"/>
			<path class="st21" d="M406.43,445.92c-0.17-0.51-0.37-1.05-0.78-1.33c-0.85-0.57-3.15,0.35-3.88,1
				c-1.11,0.99-0.13,2.72,0.23,3.95c1.05,3.59,2.08,7.18,3.15,10.76c0.05,0.19,0.11,0.38,0.24,0.52c0.23,0.26,0.6,0.25,0.92,0.21
				c0.83-0.1,1.68-0.25,2.43-0.71c0.74-0.45,1.37-1.25,1.47-2.2c0.08-0.75-0.16-1.48-0.39-2.17
				C408.68,452.6,407.55,449.26,406.43,445.92z"/>
			<path class="st21" d="M414.83,443.5c-0.18-0.49-0.38-1.02-0.8-1.28c-0.88-0.56-3.23,0.33-3.98,0.96
				c-1.14,0.95-0.13,2.62,0.24,3.82c1.09,3.47,2.15,6.95,3.27,10.41c0.06,0.18,0.12,0.37,0.24,0.5c0.24,0.25,0.62,0.24,0.95,0.21
				c0.86-0.09,1.73-0.24,2.49-0.67c0.76-0.43,1.4-1.21,1.51-2.13c0.08-0.72-0.17-1.43-0.41-2.1
				C417.16,449.96,415.99,446.73,414.83,443.5z"/>
			<path class="st21" d="M423.66,440.39c-0.18-0.49-0.39-1.01-0.82-1.28c-0.9-0.56-3.31,0.32-4.08,0.95
				c-1.17,0.95-0.13,2.62,0.25,3.8c1.12,3.46,2.21,6.93,3.36,10.38c0.06,0.18,0.12,0.37,0.25,0.5c0.24,0.25,0.63,0.24,0.97,0.21
				c0.88-0.09,1.77-0.24,2.55-0.67c0.78-0.43,1.43-1.2,1.54-2.12c0.08-0.72-0.17-1.42-0.42-2.1
				C426.06,446.83,424.86,443.61,423.66,440.39z"/>
			<path class="st21" d="M436.08,446.95c-1.25-3.05-2.49-6.09-3.74-9.14c-0.19-0.46-0.41-0.96-0.85-1.21
				c-0.93-0.53-3.4,0.29-4.19,0.88c-1.2,0.89-0.12,2.47,0.28,3.59c1.16,3.27,2.3,6.54,3.49,9.8c0.06,0.17,0.13,0.35,0.26,0.47
				c0.25,0.24,0.65,0.23,1,0.2c0.9-0.08,1.82-0.22,2.61-0.62c0.8-0.41,1.47-1.13,1.57-1.99
				C436.61,448.25,436.34,447.58,436.08,446.95z"/>
		</g>
	</g>
	<g class="st22">
		<path class="st23" d="M499.85,426.69c-2.31-7.8-5.09-18-8.2-25.49c-4.77,0.18-9.45,1.41-14.08,2.64
			c-6.32,1.68-12.64,3.36-18.97,5.03c-4.71,1.25-18.94,3.61-20.46,9.3c-0.8,3,2.43,9.25,3.3,12.16c1.38,4.66,2.77,9.32,4.15,13.98
			c0.45,1.5,1.03,3.17,2.43,3.8c1.14,0.52,2.47,0.17,3.67-0.19c15.29-4.53,30.41-7.37,45.16-13.55c1.07-0.45,2.18-0.94,2.88-1.88
			C500.91,430.89,500.42,428.61,499.85,426.69z"/>
		<path class="st23" d="M443.7,409.51c0.25-0.43,0.63-0.76,1-1.09c6.36-5.58,14.43-10.82,22.02-14.57c0.29-0.14,0.61-0.29,0.92-0.22
			c0.2,0.04,0.37,0.17,0.53,0.29c0.89,0.68,0.51,1.44,1.37,2.15c0.28,0.23,0.58,0.57,0.45,0.9c-0.07,0.17-0.23,0.27-0.38,0.36
			c-6.58,4.07-12.06,7.83-18.95,11.37c-0.26,0.13-0.53,0.28-0.67,0.54c-0.13,0.26-0.1,0.56-0.06,0.85c0.12,0.86,0.24,1.71,0.36,2.57
			c0.03,0.23,0.06,0.47-0.07,0.66c-0.14,0.21-0.42,0.26-0.66,0.31c-1.07,0.18-4.01,1.16-4.67,0.35
			C444.26,413.21,443.21,410.32,443.7,409.51z"/>
	</g>
	<path class="st13" d="M292.98,542.38c-0.58-3.49-2.86-6.65-5.99-8.3c1.12-0.33,2.51-1.11,2.21-2.23c-0.19-0.7-0.97-1.04-1.64-1.32
		c-2.89-1.18-5.53-2.95-7.72-5.16c-0.2-0.2-0.41-0.4-0.61-0.6c0,0,0.01-0.01,0.01-0.01c-12.6-14.72-23.93-30.53-33.83-47.19
		c4.05-4.59,6.83-10.15,9.55-15.63c3.92-7.9,7.85-15.79,11.77-23.69c1.5-3.03,3.05-6.4,2.19-9.67c-1.51-5.76-9.82-7.12-14.8-3.86
		c-4.98,3.26-7.37,9.2-9.46,14.78c-5.48,14.57-10.97,29.15-16.45,43.72c-0.63,1.67-1.26,3.49-0.75,5.2c0.4,1.35,1.46,2.39,2.47,3.36
		c13.66,13.13,21.98,24.59,35.63,37.72c0.45-1.72,2.15,3.67,2.19,3.66c3.94,6.57,11.51,13.53,19.01,15.17
		c0.8,0.17,4.01-1.11,4.75-1.46C292.22,546.51,292.69,543.1,292.98,542.38z"/>
	<path class="st19" d="M281.29,514.18c-0.07-3.39-5.97-4.95-5.11-8.23c-2.53,1.55-5.06,3.09-7.59,4.64
		c-4.22-8.35-8.43-16.7-12.65-25.05c-1.02-2.02-2.05-4.08-2.38-6.32c-0.55-3.75,0.95-7.48,2.49-10.94
		c4.99-11.26,10.74-22.18,17.19-32.68c2.06-3.36,5.69-8.03,3.96-12.2c-1.48-3.59-6.58-6.97-9.91-8.39
		c-3.75-1.59-8.18-1.8-11.86-0.04c-4.86,2.34-7.57,7.52-9.94,12.37c-6.14,12.54-12.29,25.09-17.66,37.98
		c-2.93,7.04-5.66,14.3-6.31,21.89c-0.24,2.83-0.16,5.81,1.17,8.31c0.95,1.79,2.46,3.2,3.94,4.58c8.95,8.33,17.91,16.65,26.86,24.98
		c0.4,0.37,0.83,0.81,0.82,1.35c-0.01,0.67-0.67,1.11-1.08,1.65c-0.88,1.15-0.57,2.88,0.31,4.03c0.89,1.15,2.22,1.84,3.51,2.51
		c6.58-5.93,13.61-11.37,21-16.26C279.59,517.34,281.32,516.02,281.29,514.18z"/>
	<path class="st24" d="M304.42,344.1c-3.04,0.37-15.22,1.2-18.28,1.09c-2.98-0.11-6.71-0.03-7.95,2.68
		c-0.25,0.54-0.36,1.15-0.69,1.65c-1.19,1.81-3.95,1-6.11,1.22c-2.93,0.3-5.18,2.91-6.06,5.73c-0.87,2.81-0.67,5.82-0.6,8.77
		c0.07,2.94-0.03,6.02-1.42,8.61c-1.5-1.58-4.04-2.25-5.94-1.2s-2.61,3.97-1.1,5.53c0.67,0.69,1.61,1.03,2.34,1.66
		c2.12,1.84,1.63,5.17,1.39,7.97c-0.48,5.8,1.04,11.74,4.26,16.58c-3.99,0.14-6.4-5.33-10.4-5.37c-1.09-0.01-2.22,0.39-3.22-0.01
		c-0.66-0.26-1.14-0.83-1.56-1.41c-2.44-3.36-3.62-7.63-6.66-10.46c-2.41-2.26-5.78-3.37-7.97-5.84c-3.08-3.46-3.14-8.69-5.53-12.65
		c-1.84-3.04-4.96-5.16-6.72-8.25c-1.84-3.23-1.98-7.17-1.47-10.85c0.54-3.89,1.77-7.69,3.62-11.16c2.81-5.3,6.96-9.74,11.06-14.12
		c2.79-2.98,5.62-5.99,9.05-8.22c4.26-2.77,9.32-4.22,14.4-4.35c5.46-0.14,10.85,1.21,16.09,2.77c7.09,2.1,23.18,3.88,29.99,6.74
		c3.23,1.36,6.51,2.86,8.92,5.4C321.8,335,313.24,343.04,304.42,344.1z"/>
</g>
<g>
	<g>
		<path class="st16" d="M1058.99,612.47c-19.82-0.9-37.88-1.55-46.16-20.4c-8.03-18.29-7.84-39.03-3.89-57.99
			c4.49-21.57,10.8-43.44,8.09-65.68c-2.3-18.85-10.38-37.27-26.85-47.82c-17.35-11.11-39.95-10.87-59.36-6.38
			c-19.12,4.42-36.97,14.01-51.57,27.06c-7.46,6.67-13.96,14.41-19.42,22.78c-5.57,8.53-9.99,18.08-17.11,25.48
			c-6.94,7.22-14.92,10.24-24.88,8.33c-9.26-1.78-19.35-4.81-27.1-10.36c-20.54-14.71-6.97-45.68-9.09-66.22
			c-1.22-11.77-5.78-22.58-13.76-31.39c-6.85-7.57-18.04-11.32-23.61-19.92c-5.78-8.95-20.18-0.61-14.34,8.38
			c5.55,8.55,14.02,12.68,21.71,18.9c7.43,6,12.33,14.68,13.52,24.17c2.83,22.54-8.42,45.78,4.21,67
			c5.11,8.59,13.41,14.63,22.44,18.59c9.64,4.23,20.41,7.69,30.99,8.17c23.95,1.09,37.27-19.36,48.08-37.48
			c10.29-17.25,24.38-31.02,42.37-40.14c16.8-8.52,37.97-13.41,56.58-8.72c19.39,4.88,29.51,21.68,32.07,40.6
			c3.02,22.37-4.32,44.62-7.92,66.48c-3.65,22.11-4.5,46.97,8.26,66.54c12.47,19.12,34.61,26.89,56.76,24.6
			C1062.32,626.68,1062.45,612.63,1058.99,612.47z"/>
	</g>
	<g>
		<g>
			<path class="st5" d="M694.33,315.55c-5.88-6.99-12.15-13.66-18.77-19.95c-0.44-0.42-0.93-0.86-1.53-0.93
				c-0.38-0.05-0.75,0.06-1.1,0.21c-0.75,0.33-1.38,0.87-1.99,1.41c-2.94,2.57-5.89,5.15-8.59,7.97c-0.44,0.45-0.88,0.93-1.1,1.52
				c-0.33,0.87-0.14,1.86,0.3,2.68c0.44,0.82,1.1,1.49,1.75,2.15c4.39,4.46,8.79,8.93,13.18,13.39c2.17,2.21,4.35,4.42,6.8,6.31
				c0.19,0.15,0.39,0.3,0.62,0.34c0.2,0.04,0.4-0.01,0.59-0.06c1.16-0.33,2.18-1.03,3.17-1.73c2.06-1.47,4.06-3,6.02-4.6
				c0.94-0.77,1.88-1.56,2.58-2.55c0.54-0.77,1.43-2.43,0.93-3.39c-0.22-0.43-0.99-0.78-1.35-1.11
				C695.28,316.7,694.81,316.12,694.33,315.55z"/>
			<path class="st9" d="M668.37,310.95c-1.45-1.46-2.6-2.64-4.06-4.1c-0.17-0.17-0.65-0.64-0.8-0.79c-0.32-0.29-0.34-0.23-0.37-0.2
				c-0.2,0.22-0.3,0.29-0.56,0.61c-0.08,0.09-0.21,0.05-0.13,0.24c0.03,0.06,0.08,0.17,0.26,0.38c0.31,0.36,1.2,1.25,1.65,1.7
				c2.11,2.13,4.14,4.2,6.25,6.31c0.15,0.15,0.31,0.3,0.44,0.43c0.33,0.31,0.5,0.34,0.52,0.31c0.2-0.25,0.38-0.3,0.59-0.51
				c0.05-0.05,0.07-0.07,0.14-0.15c0.03-0.03,0.19-0.01-0.09-0.35c-0.23-0.28-1.55-1.59-1.91-1.95
				C669.65,312.25,669.01,311.6,668.37,310.95z"/>
			<path class="st9" d="M670.21,309.13c-1.45-1.46-2.6-2.64-4.06-4.1c-0.17-0.17-0.65-0.64-0.8-0.79c-0.32-0.29-0.34-0.23-0.37-0.2
				c-0.2,0.22-0.3,0.29-0.56,0.61c-0.08,0.09-0.21,0.05-0.13,0.24c0.03,0.06,0.08,0.17,0.26,0.38c0.31,0.36,1.2,1.25,1.65,1.7
				c2.11,2.13,4.14,4.2,6.25,6.31c0.15,0.15,0.31,0.3,0.44,0.43c0.33,0.31,0.5,0.34,0.52,0.31c0.2-0.25,0.38-0.3,0.59-0.51
				c0.05-0.05,0.07-0.07,0.14-0.15c0.03-0.03,0.19-0.01-0.09-0.35c-0.23-0.28-1.55-1.59-1.91-1.95
				C671.49,310.43,670.85,309.78,670.21,309.13z"/>
			<path class="st9" d="M672.01,307.35c-1.45-1.46-2.6-2.64-4.06-4.1c-0.17-0.17-0.65-0.64-0.8-0.79c-0.32-0.29-0.34-0.23-0.37-0.2
				c-0.2,0.22-0.3,0.29-0.56,0.61c-0.08,0.09-0.21,0.05-0.13,0.24c0.03,0.06,0.08,0.17,0.26,0.38c0.31,0.36,1.2,1.25,1.65,1.7
				c2.11,2.13,4.14,4.2,6.25,6.31c0.15,0.15,0.31,0.3,0.44,0.43c0.33,0.31,0.5,0.34,0.52,0.31c0.2-0.25,0.38-0.3,0.59-0.51
				c0.05-0.05,0.07-0.07,0.14-0.15c0.03-0.03,0.19-0.01-0.09-0.35c-0.23-0.28-1.55-1.59-1.91-1.95
				C673.29,308.64,672.65,307.99,672.01,307.35z"/>
			<path class="st9" d="M673.85,305.53c-1.45-1.46-2.6-2.64-4.06-4.1c-0.17-0.17-0.65-0.64-0.8-0.79c-0.32-0.29-0.34-0.23-0.37-0.2
				c-0.2,0.22-0.3,0.29-0.56,0.61c-0.08,0.09-0.21,0.05-0.13,0.24c0.03,0.06,0.08,0.17,0.26,0.38c0.31,0.36,1.2,1.25,1.65,1.7
				c2.11,2.13,4.14,4.2,6.25,6.31c0.15,0.15,0.31,0.3,0.44,0.43c0.33,0.31,0.5,0.34,0.52,0.31c0.2-0.25,0.38-0.3,0.59-0.51
				c0.05-0.05,0.07-0.07,0.14-0.15c0.03-0.03,0.19-0.01-0.09-0.35c-0.23-0.28-1.55-1.59-1.91-1.95
				C675.13,306.82,674.49,306.17,673.85,305.53z"/>
		</g>
		<g>
			<path class="st5" d="M687.36,307.46c-3.62,2.24-5.57,6.4-8.76,9.22c-2.44,2.16-5.89,4.05-5.99,7.31
				c-0.08,2.38,1.76,4.33,3.44,6.01c2.71,2.72,5.33,5.53,7.85,8.42c9.71,11.09,18.08,23.39,28.77,33.52
				c0.75-0.76,1.5-1.52,2.26-2.27c2.15,2.47,4.38,4.86,6.76,7.12c0.34-0.34,0.67-0.68,1.01-1.02c0.92,0.88,1.85,1.74,2.82,2.56
				c2.02,1.69,4.63,3.3,7.15,2.5c1.46-0.46,2.54-1.65,3.56-2.79c3.35-3.75,10.77-8.66,5.51-13.18c-1.35-1.17-2.9-2.43-4.46-3.78
				c0.31-0.31,0.62-0.62,0.92-0.93c0.21-0.22,0.44-0.46,0.47-0.76c0.03-0.32-0.17-0.62-0.36-0.88c-1.76-2.34-3.71-4.52-5.74-6.62
				c0.29-0.3,0.59-0.59,0.88-0.89c0.27-0.27,0.55-0.57,0.59-0.95c0.04-0.41-0.21-0.78-0.46-1.1c-6.5-8.68-15.04-15.59-22.53-23.43
				c-5.6-5.86-10.67-12.28-16.91-17.45c-0.77-0.63-1.58-1.26-2.54-1.52C690.17,306.16,688.63,306.68,687.36,307.46z"/>
			<g>
				<path class="st21" d="M717.99,356.34c-0.79-0.59-1.75-1.13-2.81-0.97c-0.89,0.14-1.65,0.73-2.34,1.32
					c-2.55,2.2-4.8,4.69-6.69,7.39c-0.15,0.22-0.31,0.45-0.34,0.71c-0.04,0.31,0.11,0.59,0.29,0.83c0.61,0.85,1.57,1.57,2.54,2.04
					c1.02,0.5,1.34,0.12,2.18-0.78c2.5-2.7,4.99-5.4,7.49-8.1c0.24-0.25,0.48-0.52,0.57-0.84
					C719.05,357.3,718.52,356.74,717.99,356.34z"/>
				<path class="st21" d="M713.28,352.51c0.12-0.13,0.25-0.26,0.31-0.42c0.11-0.3-0.07-0.59-0.25-0.84
					c-0.45-0.63-0.95-1.25-1.64-1.65c-0.69-0.4-1.61-0.55-2.42-0.22c-0.63,0.26-1.11,0.78-1.56,1.28c-2.17,2.39-4.33,4.78-6.5,7.17
					c-0.33,0.36-0.68,0.76-0.71,1.22c-0.08,0.94,1.68,2.39,2.53,2.7c1.29,0.46,2.23-1.09,3.05-1.93
					C708.48,357.38,710.9,354.96,713.28,352.51z"/>
				<path class="st21" d="M707.15,346.03c0.13-0.12,0.25-0.25,0.31-0.41c0.11-0.3-0.05-0.61-0.22-0.87c-0.43-0.67-0.9-1.34-1.57-1.8
					c-0.67-0.46-1.57-0.68-2.36-0.39c-0.63,0.22-1.11,0.72-1.56,1.19c-2.18,2.28-4.36,4.56-6.54,6.84
					c-0.33,0.35-0.68,0.73-0.73,1.19c-0.1,0.96,1.59,2.56,2.41,2.93c1.25,0.56,2.21-0.95,3.04-1.75
					C702.34,350.65,704.76,348.36,707.15,346.03z"/>
				<path class="st21" d="M701.35,340.3c0.12-0.11,0.24-0.23,0.29-0.37c0.1-0.27-0.05-0.56-0.2-0.8c-0.39-0.61-0.82-1.22-1.44-1.63
					c-0.61-0.41-1.44-0.61-2.17-0.35c-0.58,0.21-1.02,0.66-1.44,1.09c-2.02,2.09-4.03,4.18-6.05,6.27
					c-0.31,0.32-0.63,0.67-0.67,1.09c-0.1,0.87,1.45,2.32,2.21,2.66c1.15,0.51,2.04-0.88,2.8-1.61
					C696.9,344.53,699.15,342.43,701.35,340.3z"/>
				<path class="st21" d="M718.67,351.64c-0.36,0.36-0.74,0.75-0.8,1.21c-0.13,0.96,1.6,2.52,2.46,2.87
					c1.3,0.53,2.35-1.02,3.25-1.84c2.6-2.38,5.22-4.75,7.79-7.15c0.14-0.12,0.28-0.25,0.34-0.42c0.13-0.3-0.04-0.61-0.21-0.87
					c-0.43-0.67-0.91-1.32-1.61-1.76c-0.69-0.44-1.63-0.64-2.48-0.33c-0.67,0.24-1.19,0.75-1.68,1.24
					C723.39,346.95,721.03,349.29,718.67,351.64z"/>
				<path class="st21" d="M713.12,345.54c-0.34,0.35-0.7,0.75-0.75,1.22c-0.11,0.98,1.62,2.6,2.47,2.97
					c1.28,0.57,2.28-0.98,3.13-1.8c2.48-2.37,4.99-4.72,7.45-7.1c0.13-0.12,0.26-0.25,0.32-0.42c0.12-0.31-0.05-0.62-0.22-0.89
					c-0.43-0.69-0.92-1.36-1.61-1.83c-0.69-0.46-1.61-0.68-2.43-0.39c-0.64,0.23-1.14,0.74-1.61,1.22
					C717.62,340.87,715.37,343.2,713.12,345.54z"/>
				<path class="st21" d="M706.81,339.36c-0.34,0.36-0.7,0.75-0.74,1.23c-0.1,0.99,1.65,2.67,2.5,3.06c1.29,0.59,2.27-0.98,3.11-1.8
					c2.46-2.39,4.95-4.76,7.39-7.17c0.13-0.12,0.26-0.26,0.32-0.42c0.11-0.31-0.06-0.64-0.23-0.91c-0.44-0.7-0.94-1.4-1.63-1.88
					c-0.69-0.48-1.62-0.71-2.43-0.42c-0.64,0.23-1.13,0.74-1.6,1.23C711.27,334.64,709.04,337,706.81,339.36z"/>
				<path class="st21" d="M707.19,326.11c-2.06,2.32-4.12,4.65-6.18,6.97c-0.31,0.35-0.64,0.74-0.67,1.23
					c-0.06,1.01,1.66,2.76,2.49,3.18c1.25,0.64,2.14-0.92,2.92-1.73c2.28-2.35,4.58-4.67,6.84-7.04c0.12-0.12,0.24-0.25,0.29-0.42
					c0.1-0.31-0.08-0.65-0.25-0.93c-0.44-0.73-0.94-1.45-1.61-1.95c-0.68-0.51-1.57-0.77-2.34-0.5
					C708.08,325.12,707.62,325.62,707.19,326.11z"/>
			</g>
		</g>
		<g class="st22">
			<path class="st23" d="M663.49,280.57c-5.64,5.2-13.11,11.81-18.16,17.56c2.14,3.97,5.13,7.41,8.1,10.82
				c4.05,4.65,8.11,9.31,12.16,13.96c3.02,3.46,10.94,14.53,16.4,13.44c2.87-0.57,6.82-5.91,8.92-7.86
				c3.37-3.11,6.74-6.23,10.1-9.34c1.08-1,2.25-2.19,2.21-3.64c-0.04-1.18-0.88-2.16-1.69-3.03
				c-10.21-11.05-18.91-22.67-30.28-32.58c-0.82-0.72-1.7-1.46-2.79-1.65C666.6,277.92,664.88,279.28,663.49,280.57z"/>
			<path class="st23" d="M672.33,335.25c-0.46-0.04-0.9-0.21-1.34-0.39c-7.38-3.06-15.17-7.71-21.51-12.57
				c-0.24-0.18-0.5-0.39-0.57-0.69c-0.05-0.19-0.01-0.38,0.03-0.57c0.2-1.04,1-1.03,1.25-2.05c0.08-0.33,0.24-0.73,0.58-0.75
				c0.17-0.01,0.32,0.08,0.47,0.17c6.19,3.88,11.65,6.95,17.51,11.31c0.22,0.16,0.46,0.33,0.73,0.34c0.27,0.01,0.52-0.15,0.74-0.31
				c0.67-0.46,1.35-0.92,2.03-1.37c0.18-0.12,0.38-0.25,0.59-0.22c0.23,0.03,0.4,0.24,0.53,0.43c0.6,0.83,2.66,2.91,2.24,3.81
				C675.23,333.23,673.22,335.32,672.33,335.25z"/>
		</g>
	</g>
</g>
<g>
	<path class="st3" d="M813.89,280.27c4.11,0.84,8.33,3.04,9.87,6.94c1.01,2.54,0.73,5.39,0.43,8.11
		c-2.05,18.81-4.1,37.63-7.52,56.24c-0.6,3.29-1.28,6.65-3.02,9.5c-1.99,3.24-5.17,5.53-8.27,7.73
		c-5.09,3.61-10.17,7.22-15.26,10.83c-4.6,3.27-14.62,8.36-19.69,10.86c-0.45,0.22-0.82,0.39-1.14,0.53
		c-1.11,1.17-3.02,2.16-4.23,3.08c-1.62,1.24-3.24,2.47-4.86,3.7c-1.22,0.93-2.51,1.89-4.02,2.15c-2.28,0.39-4.67-1.05-5.59-3.17
		c-0.92-2.12-0.43-4.72,1.02-6.51c0.68-0.84,1.62-1.71,1.46-2.79c-0.04-0.28-0.16-0.55-0.15-0.83c0.01-0.67,0.65-1.12,1.23-1.45
		c2.88-1.66,5.94-3.01,9.11-4.02c0.15-0.05,0.3-0.1,0.46-0.14c0.36-0.27,0.82-0.6,1.42-1c5.01-3.41,14.43-11.91,19.44-15.32
		c4.95-3.37,10.2-7.13,12.14-12.79c1.24-3.6,0.96-7.52,0.73-11.33c-0.85-13.95-0.83-27.95,0.05-41.9c0.23-3.59,0.52-7.25,1.83-10.6
		c1.31-3.36,3.78-6.43,7.17-7.63C808.84,279.63,811.44,279.77,813.89,280.27z"/>
</g>
<path class="st4" d="M780.03,385.75c0.19,0.33,0.42,0.69,0.79,0.77c0.34,0.07,0.67-0.12,0.97-0.3c5.75-3.57,11.5-7.14,17.25-10.7
	c7.56-4.69,15.6-9.93,18.84-18.22c1.59-4.06,1.87-8.49,2.17-12.84c0.86-12.31,2.09-24.6,4.24-36.75c0.78-4.39,1.68-8.79,1.7-13.25
	c0.02-3.8-0.6-7.58-1.31-11.32c-0.22-1.16-0.46-2.36-1.12-3.35c-0.85-1.27-2.27-2.02-3.68-2.6c-4.8-1.96-10.2-2.44-15.27-1.36
	c-2,0.43-4.01,1.12-5.57,2.45c-4.09,3.49-3.73,9.76-3.48,15.13c0.29,6.35-0.07,12.73-1.08,19.01c-0.69,4.3-1.69,8.6-1.61,12.95
	c0.07,3.54,0.84,7.02,1.32,10.52c0.61,4.48,0.74,9.03,0.38,13.53c-0.11,1.38-0.27,2.78-0.86,4.03c-0.78,1.66-2.24,2.88-3.66,4.05
	c-4.99,4.13-11.22,8.04-15.53,12.85c-2.61,2.92-1.35,3.49,0.64,6.95C776.8,380.13,778.41,382.94,780.03,385.75z"/>
</svg>
